NotoSansThai-Bold.ufo
<glyph name="koKai-thai" format="2">
  <advance width="650"/>
  <unicode hex="0E01"/>
  <note>
uni0E01
</note>
  <anchor x="592" y="0" name="bottom"/>
  <anchor x="572" y="536" name="top"/>
  <outline>
    <contour>
      <point x="66" y="0" type="line"/>
      <point x="258" y="0" type="line"/>
      <point x="258" y="169" type="line" smooth="yes"/>
      <point x="258" y="212"/>
      <point x="270" y="246"/>
      <point x="318" y="251" type="curve"/>
      <point x="330" y="328" type="line"/>
      <point x="254" y="361" type="line"/>
      <point x="257" y="387"/>
      <point x="273" y="411"/>
      <point x="322" y="411" type="curve" smooth="yes"/>
      <point x="379" y="411"/>
      <point x="400" y="379"/>
      <point x="400" y="328" type="curve" smooth="yes"/>
      <point x="400" y="0" type="line"/>
      <point x="592" y="0" type="line"/>
      <point x="592" y="337" type="line" smooth="yes"/>
      <point x="592" y="484"/>
      <point x="501" y="563"/>
      <point x="328" y="563" type="curve" smooth="yes"/>
      <point x="149" y="563"/>
      <point x="56" y="478"/>
      <point x="56" y="368" type="curve" smooth="yes"/>
      <point x="56" y="348" type="line"/>
      <point x="162" y="310" type="line"/>
      <point x="161" y="306" type="line"/>
      <point x="95" y="284"/>
      <point x="66" y="235"/>
      <point x="66" y="151" type="curve" smooth="yes"/>
    </contour>
  </outline>
</glyph>
<glyph name="khoKhai-thai" format="2">
  <advance width="620"/>
  <unicode hex="0E02"/>
  <note>
uni0E02
</note>
  <anchor x="542" y="0" name="bottom"/>
  <anchor x="562" y="536" name="top"/>
  <outline>
    <contour>
      <point x="309" y="-15" type="curve" smooth="yes"/>
      <point x="474" y="-15"/>
      <point x="562" y="58"/>
      <point x="562" y="210" type="curve" smooth="yes"/>
      <point x="562" y="548" type="line"/>
      <point x="372" y="548" type="line"/>
      <point x="372" y="213" type="line" smooth="yes"/>
      <point x="372" y="164"/>
      <point x="354" y="133"/>
      <point x="310" y="133" type="curve" smooth="yes"/>
      <point x="267" y="133"/>
      <point x="251" y="163"/>
      <point x="251" y="209" type="curve" smooth="yes"/>
      <point x="251" y="236" type="line" smooth="yes"/>
      <point x="251" y="286"/>
      <point x="267" y="301"/>
      <point x="283" y="332" type="curve" smooth="yes"/>
      <point x="300" y="366"/>
      <point x="307" y="395"/>
      <point x="307" y="430" type="curve" smooth="yes"/>
      <point x="307" y="510"/>
      <point x="271" y="558"/>
      <point x="173" y="558" type="curve" smooth="yes"/>
      <point x="136" y="558"/>
      <point x="81" y="551"/>
      <point x="36" y="528" type="curve"/>
      <point x="63" y="413" type="line"/>
      <point x="80" y="421"/>
      <point x="91" y="424"/>
      <point x="102" y="424" type="curve" smooth="yes"/>
      <point x="119" y="424"/>
      <point x="130" y="416"/>
      <point x="130" y="396" type="curve" smooth="yes"/>
      <point x="130" y="373"/>
      <point x="116" y="352"/>
      <point x="96" y="323" type="curve" smooth="yes"/>
      <point x="75" y="293"/>
      <point x="61" y="261"/>
      <point x="61" y="216" type="curve" smooth="yes"/>
      <point x="61" y="190" type="line" smooth="yes"/>
      <point x="61" y="58"/>
      <point x="142" y="-15"/>
    </contour>
  </outline>
</glyph>
<glyph name="khoKhuat-thai" format="2">
  <advance width="632"/>
  <unicode hex="0E03"/>
  <anchor x="544" y="0" name="bottom"/>
  <anchor x="574" y="536" name="top"/>
  <outline>
    <contour>
      <point x="319" y="-15" type="curve" smooth="yes"/>
      <point x="486" y="-15"/>
      <point x="574" y="58"/>
      <point x="574" y="210" type="curve" smooth="yes"/>
      <point x="574" y="548" type="line"/>
      <point x="384" y="548" type="line"/>
      <point x="384" y="213" type="line" smooth="yes"/>
      <point x="384" y="165"/>
      <point x="368" y="133"/>
      <point x="319" y="133" type="curve" smooth="yes"/>
      <point x="270" y="133"/>
      <point x="253" y="165"/>
      <point x="253" y="211" type="curve" smooth="yes"/>
      <point x="253" y="234" type="line" smooth="yes"/>
      <point x="253" y="291"/>
      <point x="271" y="308"/>
      <point x="294" y="344" type="curve" smooth="yes"/>
      <point x="316" y="379"/>
      <point x="333" y="399"/>
      <point x="333" y="466" type="curve" smooth="yes"/>
      <point x="333" y="548" type="line"/>
      <point x="233" y="548" type="line"/>
      <point x="217" y="512" type="line"/>
      <point x="206" y="502"/>
      <point x="195" y="499"/>
      <point x="186" y="499" type="curve" smooth="yes"/>
      <point x="167" y="499"/>
      <point x="159" y="513"/>
      <point x="159" y="548" type="curve"/>
      <point x="32" y="548" type="line"/>
      <point x="32" y="501" type="line" smooth="yes"/>
      <point x="32" y="431"/>
      <point x="67" y="392"/>
      <point x="118" y="392" type="curve" smooth="yes"/>
      <point x="129" y="392"/>
      <point x="141" y="394"/>
      <point x="153" y="398" type="curve"/>
      <point x="156" y="397" type="line"/>
      <point x="154" y="382"/>
      <point x="133" y="362"/>
      <point x="124" y="352" type="curve" smooth="yes"/>
      <point x="78" y="301"/>
      <point x="61" y="259"/>
      <point x="61" y="208" type="curve" smooth="yes"/>
      <point x="61" y="196" type="line" smooth="yes"/>
      <point x="61" y="64"/>
      <point x="141" y="-15"/>
    </contour>
  </outline>
</glyph>
<glyph name="khoKhwai-thai" format="2">
  <advance width="664"/>
  <unicode hex="0E04"/>
  <note>
uni0E04
</note>
  <anchor x="606" y="1" name="bottom"/>
  <anchor x="586" y="536" name="top"/>
  <outline>
    <contour>
      <point x="58" y="0" type="line"/>
      <point x="246" y="0" type="line"/>
      <point x="246" y="42" type="line" smooth="yes"/>
      <point x="246" y="109"/>
      <point x="266" y="165"/>
      <point x="351" y="165" type="curve" smooth="yes"/>
      <point x="369" y="165" type="line"/>
      <point x="369" y="304" type="line"/>
      <point x="351" y="304" type="line" smooth="yes"/>
      <point x="300" y="304"/>
      <point x="273" y="292"/>
      <point x="250" y="240" type="curve"/>
      <point x="246" y="241" type="line"/>
      <point x="246" y="311" type="line" smooth="yes"/>
      <point x="246" y="369"/>
      <point x="268" y="411"/>
      <point x="331" y="411" type="curve" smooth="yes"/>
      <point x="394" y="411"/>
      <point x="416" y="369"/>
      <point x="416" y="311" type="curve" smooth="yes"/>
      <point x="416" y="0" type="line"/>
      <point x="606" y="0" type="line"/>
      <point x="606" y="308" type="line" smooth="yes"/>
      <point x="606" y="474"/>
      <point x="525" y="563"/>
      <point x="334" y="563" type="curve" smooth="yes"/>
      <point x="143" y="563"/>
      <point x="58" y="474"/>
      <point x="58" y="308" type="curve" smooth="yes"/>
    </contour>
  </outline>
</glyph>
<glyph name="khoKhon-thai" format="2">
  <advance width="679"/>
  <unicode hex="0E05"/>
  <anchor x="620" y="1" name="bottom"/>
  <anchor x="600" y="536" name="top"/>
  <outline>
    <contour>
      <point x="58" y="0" type="line"/>
      <point x="246" y="0" type="line"/>
      <point x="246" y="42" type="line" smooth="yes"/>
      <point x="246" y="109"/>
      <point x="266" y="165"/>
      <point x="363" y="165" type="curve" smooth="yes"/>
      <point x="381" y="165" type="line"/>
      <point x="381" y="304" type="line"/>
      <point x="363" y="304" type="line" smooth="yes"/>
      <point x="300" y="304"/>
      <point x="273" y="292"/>
      <point x="250" y="240" type="curve"/>
      <point x="246" y="241" type="line"/>
      <point x="246" y="361" type="line" smooth="yes"/>
      <point x="246" y="397"/>
      <point x="259" y="409"/>
      <point x="277" y="409" type="curve" smooth="yes"/>
      <point x="295" y="409"/>
      <point x="307" y="396"/>
      <point x="310" y="366" type="curve"/>
      <point x="369" y="366" type="line"/>
      <point x="370" y="396"/>
      <point x="384" y="409"/>
      <point x="402" y="409" type="curve" smooth="yes"/>
      <point x="420" y="409"/>
      <point x="431" y="397"/>
      <point x="431" y="361" type="curve" smooth="yes"/>
      <point x="431" y="0" type="line"/>
      <point x="621" y="0" type="line"/>
      <point x="621" y="424" type="line" smooth="yes"/>
      <point x="621" y="518"/>
      <point x="560" y="563"/>
      <point x="470" y="563" type="curve" smooth="yes"/>
      <point x="405" y="563"/>
      <point x="357" y="539"/>
      <point x="342" y="492" type="curve"/>
      <point x="337" y="492" type="line"/>
      <point x="322" y="539"/>
      <point x="274" y="563"/>
      <point x="209" y="563" type="curve" smooth="yes"/>
      <point x="119" y="563"/>
      <point x="58" y="518"/>
      <point x="58" y="424" type="curve" smooth="yes"/>
    </contour>
  </outline>
</glyph>
<glyph name="khoRakhang-thai" format="2">
  <advance width="664"/>
  <unicode hex="0E06"/>
  <anchor x="595" y="0" name="bottom"/>
  <anchor x="606" y="536" name="top"/>
  <outline>
    <contour>
      <point x="424" y="-10" type="curve" smooth="yes"/>
      <point x="547" y="-10"/>
      <point x="606" y="70"/>
      <point x="606" y="200" type="curve" smooth="yes"/>
      <point x="606" y="548" type="line"/>
      <point x="414" y="548" type="line"/>
      <point x="414" y="251" type="line" smooth="yes"/>
      <point x="414" y="178"/>
      <point x="388" y="157"/>
      <point x="346" y="157" type="curve" smooth="yes"/>
      <point x="294" y="157"/>
      <point x="262" y="190"/>
      <point x="262" y="239" type="curve" smooth="yes"/>
      <point x="262" y="245" type="line" smooth="yes"/>
      <point x="262" y="287"/>
      <point x="281" y="303"/>
      <point x="308" y="344" type="curve" smooth="yes"/>
      <point x="335" y="385"/>
      <point x="347" y="411"/>
      <point x="347" y="466" type="curve" smooth="yes"/>
      <point x="347" y="548" type="line"/>
      <point x="240" y="548" type="line"/>
      <point x="224" y="512" type="line"/>
      <point x="213" y="502"/>
      <point x="202" y="499"/>
      <point x="193" y="499" type="curve" smooth="yes"/>
      <point x="174" y="499"/>
      <point x="166" y="513"/>
      <point x="166" y="548" type="curve"/>
      <point x="38" y="548" type="line"/>
      <point x="38" y="501" type="line" smooth="yes"/>
      <point x="38" y="431"/>
      <point x="73" y="392"/>
      <point x="124" y="392" type="curve" smooth="yes"/>
      <point x="135" y="392"/>
      <point x="147" y="394"/>
      <point x="159" y="398" type="curve"/>
      <point x="162" y="397" type="line"/>
      <point x="160" y="383"/>
      <point x="143" y="366"/>
      <point x="130" y="352" type="curve" smooth="yes"/>
      <point x="83" y="301"/>
      <point x="70" y="256"/>
      <point x="70" y="198" type="curve" smooth="yes"/>
      <point x="70" y="0" type="line"/>
      <point x="208" y="0" type="line"/>
      <point x="232" y="86" type="line"/>
      <point x="243" y="86" type="line"/>
      <point x="267" y="33"/>
      <point x="328" y="-10"/>
    </contour>
  </outline>
</glyph>
<glyph name="ngoNgu-thai" format="2">
  <advance width="588"/>
  <unicode hex="0E07"/>
  <note>
uni0E07
</note>
  <anchor x="458" y="0" name="bottom"/>
  <anchor x="502" y="536" name="top"/>
  <outline>
    <contour>
      <point x="153" y="0" type="line"/>
      <point x="250" y="0" type="line" smooth="yes"/>
      <point x="369" y="0"/>
      <point x="426" y="24"/>
      <point x="467" y="63" type="curve" smooth="yes"/>
      <point x="516" y="109"/>
      <point x="557" y="191"/>
      <point x="557" y="301" type="curve" smooth="yes"/>
      <point x="557" y="388"/>
      <point x="532" y="457"/>
      <point x="485" y="502" type="curve" smooth="yes"/>
      <point x="447" y="538"/>
      <point x="398" y="558"/>
      <point x="323" y="558" type="curve" smooth="yes"/>
      <point x="306" y="558"/>
      <point x="274" y="557"/>
      <point x="242" y="548" type="curve"/>
      <point x="274" y="403" type="line"/>
      <point x="281" y="406"/>
      <point x="287" y="407"/>
      <point x="294" y="407" type="curve" smooth="yes"/>
      <point x="336" y="407"/>
      <point x="361" y="368"/>
      <point x="361" y="295" type="curve" smooth="yes"/>
      <point x="361" y="253"/>
      <point x="353" y="209"/>
      <point x="334" y="178" type="curve" smooth="yes"/>
      <point x="324" y="162"/>
      <point x="314" y="152"/>
      <point x="300" y="152" type="curve" smooth="yes"/>
      <point x="297" y="152" type="line"/>
      <point x="193" y="548" type="line"/>
      <point x="0" y="548" type="line"/>
    </contour>
  </outline>
</glyph>
<glyph name="choChan-thai" format="2">
  <advance width="574"/>
  <unicode hex="0E08"/>
  <anchor x="469" y="0" name="bottom"/>
  <anchor x="513" y="536" name="top"/>
  <outline>
    <contour>
      <point x="91" y="0" type="line"/>
      <point x="248" y="0" type="line" smooth="yes"/>
      <point x="462" y="0"/>
      <point x="543" y="98"/>
      <point x="543" y="280" type="curve" smooth="yes"/>
      <point x="543" y="477"/>
      <point x="448" y="563"/>
      <point x="245" y="563" type="curve" smooth="yes"/>
      <point x="150" y="563"/>
      <point x="83" y="541"/>
      <point x="36" y="520" type="curve"/>
      <point x="36" y="365" type="line"/>
      <point x="75" y="387"/>
      <point x="130" y="413"/>
      <point x="204" y="413" type="curve" smooth="yes"/>
      <point x="290" y="413"/>
      <point x="349" y="382"/>
      <point x="349" y="275" type="curve" smooth="yes"/>
      <point x="349" y="194"/>
      <point x="315" y="143"/>
      <point x="264" y="143" type="curve" smooth="yes"/>
      <point x="261" y="143" type="line"/>
      <point x="261" y="327" type="line"/>
      <point x="46" y="327" type="line"/>
      <point x="46" y="220" type="line"/>
      <point x="91" y="220" type="line"/>
    </contour>
  </outline>
</glyph>
<glyph name="choChing-thai" format="2">
  <advance width="634"/>
  <unicode hex="0E09"/>
  <anchor x="576" y="0" name="bottom"/>
  <anchor x="566" y="536" name="top"/>
  <outline>
    <contour>
      <point x="234" y="-10" type="curve" smooth="yes"/>
      <point x="322" y="-10"/>
      <point x="373" y="34"/>
      <point x="399" y="81" type="curve"/>
      <point x="410" y="81" type="line"/>
      <point x="434" y="0" type="line"/>
      <point x="576" y="0" type="line"/>
      <point x="576" y="327" type="line" smooth="yes"/>
      <point x="576" y="479"/>
      <point x="500" y="563"/>
      <point x="315" y="563" type="curve" smooth="yes"/>
      <point x="220" y="563"/>
      <point x="133" y="541"/>
      <point x="86" y="520" type="curve"/>
      <point x="86" y="365" type="line"/>
      <point x="126" y="384"/>
      <point x="189" y="413"/>
      <point x="267" y="413" type="curve" smooth="yes"/>
      <point x="339" y="413"/>
      <point x="384" y="388"/>
      <point x="384" y="325" type="curve" smooth="yes"/>
      <point x="384" y="254" type="line" smooth="yes"/>
      <point x="384" y="188"/>
      <point x="353" y="156"/>
      <point x="306" y="156" type="curve" smooth="yes"/>
      <point x="271" y="156"/>
      <point x="250" y="174"/>
      <point x="250" y="229" type="curve" smooth="yes"/>
      <point x="250" y="313" type="line"/>
      <point x="68" y="313" type="line"/>
      <point x="68" y="160" type="line" smooth="yes"/>
      <point x="68" y="39"/>
      <point x="124" y="-10"/>
    </contour>
  </outline>
</glyph>
<glyph name="choChang-thai" format="2">
  <advance width="629"/>
  <unicode hex="0E0A"/>
  <anchor x="548" y="0" name="bottom"/>
  <anchor x="585" y="534" name="top"/>
  <outline>
    <contour>
      <point x="322" y="-15" type="curve" smooth="yes"/>
      <point x="490" y="-15"/>
      <point x="578" y="58"/>
      <point x="578" y="210" type="curve" smooth="yes"/>
      <point x="578" y="281" type="line" smooth="yes"/>
      <point x="578" y="335"/>
      <point x="560" y="369"/>
      <point x="518" y="381" type="curve"/>
      <point x="518" y="385" type="line"/>
      <point x="568" y="402"/>
      <point x="591" y="458"/>
      <point x="591" y="548" type="curve"/>
      <point x="401" y="548" type="line"/>
      <point x="401" y="482"/>
      <point x="388" y="432"/>
      <point x="339" y="432" type="curve" smooth="yes"/>
      <point x="332" y="432" type="line"/>
      <point x="332" y="338" type="line"/>
      <point x="338" y="338" type="line" smooth="yes"/>
      <point x="376" y="338"/>
      <point x="388" y="314"/>
      <point x="388" y="280" type="curve" smooth="yes"/>
      <point x="388" y="213" type="line" smooth="yes"/>
      <point x="388" y="166"/>
      <point x="372" y="133"/>
      <point x="321" y="133" type="curve" smooth="yes"/>
      <point x="272" y="133"/>
      <point x="255" y="164"/>
      <point x="255" y="211" type="curve" smooth="yes"/>
      <point x="255" y="236" type="line" smooth="yes"/>
      <point x="255" y="286"/>
      <point x="267" y="301"/>
      <point x="283" y="332" type="curve" smooth="yes"/>
      <point x="300" y="366"/>
      <point x="307" y="395"/>
      <point x="307" y="430" type="curve" smooth="yes"/>
      <point x="307" y="510"/>
      <point x="271" y="558"/>
      <point x="173" y="558" type="curve" smooth="yes"/>
      <point x="136" y="558"/>
      <point x="81" y="551"/>
      <point x="36" y="528" type="curve"/>
      <point x="63" y="413" type="line"/>
      <point x="80" y="421"/>
      <point x="91" y="424"/>
      <point x="102" y="424" type="curve" smooth="yes"/>
      <point x="119" y="424"/>
      <point x="130" y="416"/>
      <point x="130" y="396" type="curve" smooth="yes"/>
      <point x="130" y="373"/>
      <point x="116" y="352"/>
      <point x="96" y="323" type="curve" smooth="yes"/>
      <point x="75" y="293"/>
      <point x="65" y="260"/>
      <point x="65" y="215" type="curve" smooth="yes"/>
      <point x="65" y="191" type="line" smooth="yes"/>
      <point x="65" y="59"/>
      <point x="151" y="-15"/>
    </contour>
  </outline>
</glyph>
<glyph name="soSo-thai" format="2">
  <advance width="632"/>
  <unicode hex="0E0B"/>
  <note>
uni0E0B
</note>
  <anchor x="551" y="0" name="bottom"/>
  <anchor x="588" y="534" name="top"/>
  <outline>
    <contour>
      <point x="322" y="-15" type="curve" smooth="yes"/>
      <point x="494" y="-15"/>
      <point x="581" y="59"/>
      <point x="581" y="210" type="curve" smooth="yes"/>
      <point x="581" y="281" type="line" smooth="yes"/>
      <point x="581" y="335"/>
      <point x="563" y="369"/>
      <point x="521" y="381" type="curve"/>
      <point x="521" y="385" type="line"/>
      <point x="571" y="404"/>
      <point x="594" y="458"/>
      <point x="594" y="548" type="curve"/>
      <point x="404" y="548" type="line"/>
      <point x="404" y="482"/>
      <point x="394" y="432"/>
      <point x="349" y="432" type="curve" smooth="yes"/>
      <point x="345" y="432" type="line"/>
      <point x="345" y="338" type="line"/>
      <point x="348" y="338" type="line" smooth="yes"/>
      <point x="379" y="338"/>
      <point x="391" y="314"/>
      <point x="391" y="280" type="curve" smooth="yes"/>
      <point x="391" y="213" type="line" smooth="yes"/>
      <point x="391" y="166"/>
      <point x="375" y="133"/>
      <point x="322" y="133" type="curve" smooth="yes"/>
      <point x="271" y="133"/>
      <point x="254" y="164"/>
      <point x="254" y="211" type="curve" smooth="yes"/>
      <point x="254" y="234" type="line" smooth="yes"/>
      <point x="254" y="291"/>
      <point x="272" y="308"/>
      <point x="295" y="344" type="curve" smooth="yes"/>
      <point x="317" y="379"/>
      <point x="324" y="399"/>
      <point x="324" y="466" type="curve" smooth="yes"/>
      <point x="324" y="548" type="line"/>
      <point x="234" y="548" type="line"/>
      <point x="218" y="512" type="line"/>
      <point x="207" y="502"/>
      <point x="196" y="499"/>
      <point x="187" y="499" type="curve" smooth="yes"/>
      <point x="168" y="499"/>
      <point x="160" y="513"/>
      <point x="160" y="548" type="curve"/>
      <point x="32" y="548" type="line"/>
      <point x="32" y="501" type="line" smooth="yes"/>
      <point x="32" y="431"/>
      <point x="67" y="392"/>
      <point x="118" y="392" type="curve" smooth="yes"/>
      <point x="129" y="392"/>
      <point x="141" y="394"/>
      <point x="153" y="398" type="curve"/>
      <point x="156" y="397" type="line"/>
      <point x="154" y="382"/>
      <point x="133" y="362"/>
      <point x="124" y="352" type="curve" smooth="yes"/>
      <point x="78" y="301"/>
      <point x="62" y="259"/>
      <point x="62" y="208" type="curve" smooth="yes"/>
      <point x="62" y="196" type="line" smooth="yes"/>
      <point x="62" y="64"/>
      <point x="146" y="-15"/>
    </contour>
  </outline>
</glyph>
<glyph name="choChoe-thai" format="2">
  <advance width="943"/>
  <unicode hex="0E0C"/>
  <anchor x="863" y="0" name="bottom"/>
  <anchor x="885" y="536" name="top"/>
  <outline>
    <contour>
      <point x="212" y="-10" type="curve" smooth="yes"/>
      <point x="258" y="-10"/>
      <point x="297" y="0"/>
      <point x="322" y="13" type="curve"/>
      <point x="307" y="120" type="line"/>
      <point x="297" y="116"/>
      <point x="285" y="114"/>
      <point x="274" y="114" type="curve" smooth="yes"/>
      <point x="246" y="114"/>
      <point x="235" y="126"/>
      <point x="235" y="154" type="curve" smooth="yes"/>
      <point x="235" y="197" type="line" smooth="yes"/>
      <point x="235" y="240"/>
      <point x="252" y="253"/>
      <point x="300" y="255" type="curve"/>
      <point x="312" y="332" type="line"/>
      <point x="242" y="365" type="line"/>
      <point x="246" y="398"/>
      <point x="268" y="415"/>
      <point x="312" y="415" type="curve" smooth="yes"/>
      <point x="362" y="415"/>
      <point x="383" y="389"/>
      <point x="383" y="335" type="curve" smooth="yes"/>
      <point x="383" y="0" type="line"/>
      <point x="526" y="0" type="line"/>
      <point x="550" y="86" type="line"/>
      <point x="561" y="86" type="line"/>
      <point x="585" y="33"/>
      <point x="634" y="-10"/>
      <point x="725" y="-10" type="curve" smooth="yes"/>
      <point x="842" y="-10"/>
      <point x="885" y="60"/>
      <point x="885" y="180" type="curve" smooth="yes"/>
      <point x="885" y="548" type="line"/>
      <point x="693" y="548" type="line"/>
      <point x="693" y="231" type="line" smooth="yes"/>
      <point x="693" y="178"/>
      <point x="668" y="157"/>
      <point x="640" y="157" type="curve" smooth="yes"/>
      <point x="600" y="157"/>
      <point x="571" y="201"/>
      <point x="571" y="268" type="curve" smooth="yes"/>
      <point x="571" y="353" type="line" smooth="yes"/>
      <point x="571" y="484"/>
      <point x="487" y="563"/>
      <point x="314" y="563" type="curve" smooth="yes"/>
      <point x="136" y="563"/>
      <point x="44" y="478"/>
      <point x="44" y="368" type="curve" smooth="yes"/>
      <point x="44" y="348" type="line"/>
      <point x="150" y="310" type="line"/>
      <point x="149" y="306" type="line"/>
      <point x="83" y="284"/>
      <point x="49" y="251"/>
      <point x="49" y="177" type="curve" smooth="yes"/>
      <point x="49" y="134" type="line" smooth="yes"/>
      <point x="49" y="44"/>
      <point x="105" y="-10"/>
    </contour>
  </outline>
</glyph>
<glyph name="yoYing-thai" format="2">
  <advance width="957"/>
  <unicode hex="0E0D"/>
  <anchor x="859" y="-177" name="bottom"/>
  <anchor x="889" y="536" name="top"/>
  <outline>
    <contour>
      <point x="599" y="-211" type="curve" smooth="yes"/>
      <point x="790" y="-211"/>
      <point x="889" y="-119"/>
      <point x="889" y="78" type="curve" smooth="yes"/>
      <point x="889" y="548" type="line"/>
      <point x="697" y="548" type="line"/>
      <point x="697" y="288" type="line" smooth="yes"/>
      <point x="697" y="221"/>
      <point x="669" y="177"/>
      <point x="626" y="177" type="curve" smooth="yes"/>
      <point x="597" y="177"/>
      <point x="571" y="198"/>
      <point x="571" y="251" type="curve" smooth="yes"/>
      <point x="571" y="353" type="line" smooth="yes"/>
      <point x="571" y="484"/>
      <point x="487" y="563"/>
      <point x="314" y="563" type="curve" smooth="yes"/>
      <point x="136" y="563"/>
      <point x="44" y="478"/>
      <point x="44" y="368" type="curve" smooth="yes"/>
      <point x="44" y="348" type="line"/>
      <point x="150" y="310" type="line"/>
      <point x="149" y="306" type="line"/>
      <point x="83" y="284"/>
      <point x="49" y="251"/>
      <point x="49" y="177" type="curve" smooth="yes"/>
      <point x="49" y="134" type="line" smooth="yes"/>
      <point x="49" y="44"/>
      <point x="105" y="-10"/>
      <point x="212" y="-10" type="curve" smooth="yes"/>
      <point x="258" y="-10"/>
      <point x="297" y="0"/>
      <point x="322" y="13" type="curve"/>
      <point x="307" y="120" type="line"/>
      <point x="297" y="116"/>
      <point x="285" y="114"/>
      <point x="274" y="114" type="curve" smooth="yes"/>
      <point x="246" y="114"/>
      <point x="235" y="126"/>
      <point x="235" y="154" type="curve" smooth="yes"/>
      <point x="235" y="197" type="line" smooth="yes"/>
      <point x="235" y="240"/>
      <point x="252" y="253"/>
      <point x="300" y="255" type="curve"/>
      <point x="312" y="332" type="line"/>
      <point x="242" y="365" type="line"/>
      <point x="246" y="398"/>
      <point x="272" y="415"/>
      <point x="311" y="415" type="curve" smooth="yes"/>
      <point x="356" y="415"/>
      <point x="383" y="393"/>
      <point x="383" y="341" type="curve" smooth="yes"/>
      <point x="383" y="180" type="line" smooth="yes"/>
      <point x="383" y="65"/>
      <point x="447" y="12"/>
      <point x="552" y="12" type="curve" smooth="yes"/>
      <point x="629" y="12"/>
      <point x="670" y="42"/>
      <point x="694" y="76" type="curve"/>
      <point x="703" y="76" type="line"/>
      <point x="703" y="44" type="line" smooth="yes"/>
      <point x="703" y="-21"/>
      <point x="656" y="-63"/>
      <point x="566" y="-63" type="curve" smooth="yes"/>
      <point x="500" y="-63"/>
      <point x="446" y="-40"/>
      <point x="417" y="-22" type="curve"/>
      <point x="417" y="-177" type="line"/>
      <point x="470" y="-201"/>
      <point x="536" y="-211"/>
    </contour>
  </outline>
</glyph>
<glyph name="thoThan-thai" format="2">
  <advance width="586"/>
  <unicode hex="0E10"/>
  <anchor x="544" y="-198" name="bottom"/>
  <anchor x="523" y="536" name="top"/>
  <outline>
    <contour>
      <point x="96" y="0" type="line"/>
      <point x="253" y="0" type="line" smooth="yes"/>
      <point x="462" y="0"/>
      <point x="549" y="103"/>
      <point x="549" y="268" type="curve" smooth="yes"/>
      <point x="549" y="395"/>
      <point x="501" y="455"/>
      <point x="443" y="468" type="curve"/>
      <point x="424" y="542"/>
      <point x="349" y="563"/>
      <point x="253" y="563" type="curve" smooth="yes"/>
      <point x="154" y="563"/>
      <point x="88" y="541"/>
      <point x="41" y="520" type="curve"/>
      <point x="41" y="365" type="line"/>
      <point x="80" y="387"/>
      <point x="134" y="413"/>
      <point x="211" y="413" type="curve" smooth="yes"/>
      <point x="296" y="413"/>
      <point x="354" y="381"/>
      <point x="354" y="275" type="curve" smooth="yes"/>
      <point x="354" y="194"/>
      <point x="320" y="143"/>
      <point x="269" y="143" type="curve" smooth="yes"/>
      <point x="266" y="143" type="line"/>
      <point x="266" y="327" type="line"/>
      <point x="51" y="327" type="line"/>
      <point x="51" y="220" type="line"/>
      <point x="96" y="220" type="line"/>
    </contour>
    <contour>
      <point x="37" y="-220" type="line"/>
      <point x="171" y="-220" type="line"/>
      <point x="171" y="-217" type="line" smooth="yes"/>
      <point x="171" y="-198"/>
      <point x="175" y="-173"/>
      <point x="204" y="-173" type="curve" smooth="yes"/>
      <point x="233" y="-173"/>
      <point x="252" y="-197"/>
      <point x="264" y="-220" type="curve"/>
      <point x="296" y="-220" type="line"/>
      <point x="331" y="-172" type="line"/>
      <point x="385" y="-220" type="line"/>
      <point x="544" y="-220" type="line"/>
      <point x="544" y="-19" type="line"/>
      <point x="390" y="-19" type="line"/>
      <point x="390" y="-103" type="line"/>
      <point x="399" y="-98" type="line"/>
      <point x="329" y="-48" type="line"/>
      <point x="281" y="-102" type="line"/>
      <point x="248" y="-57"/>
      <point x="216" y="-34"/>
      <point x="161" y="-34" type="curve" smooth="yes"/>
      <point x="87" y="-34"/>
      <point x="37" y="-76"/>
      <point x="37" y="-184" type="curve" smooth="yes"/>
    </contour>
    <contour>
      <point x="438" y="416" type="line"/>
      <point x="546" y="452"/>
      <point x="574" y="523"/>
      <point x="574" y="584" type="curve"/>
      <point x="427" y="584" type="line"/>
      <point x="431" y="551"/>
      <point x="409" y="524"/>
      <point x="353" y="502" type="curve"/>
    </contour>
  </outline>
</glyph>
<glyph name="thoNangmontho-thai" format="2">
  <advance width="664"/>
  <unicode hex="0E11"/>
  <anchor x="606" y="0" name="bottom"/>
  <anchor x="576" y="536" name="top"/>
  <outline>
    <contour>
      <point x="71" y="0" type="line"/>
      <point x="263" y="0" type="line"/>
      <point x="263" y="214" type="line" smooth="yes"/>
      <point x="263" y="270"/>
      <point x="275" y="298"/>
      <point x="300" y="336" type="curve" smooth="yes"/>
      <point x="332" y="384"/>
      <point x="352" y="401"/>
      <point x="377" y="401" type="curve" smooth="yes"/>
      <point x="405" y="401"/>
      <point x="414" y="381"/>
      <point x="414" y="341" type="curve" smooth="yes"/>
      <point x="414" y="0" type="line"/>
      <point x="606" y="0" type="line"/>
      <point x="606" y="433" type="line" smooth="yes"/>
      <point x="606" y="513"/>
      <point x="556" y="558"/>
      <point x="482" y="558" type="curve" smooth="yes"/>
      <point x="404" y="558"/>
      <point x="350" y="518"/>
      <point x="323" y="471" type="curve"/>
      <point x="318" y="471" type="line"/>
      <point x="318" y="548" type="line"/>
      <point x="228" y="548" type="line"/>
      <point x="212" y="512" type="line"/>
      <point x="201" y="502"/>
      <point x="190" y="499"/>
      <point x="181" y="499" type="curve" smooth="yes"/>
      <point x="162" y="499"/>
      <point x="154" y="513"/>
      <point x="154" y="548" type="curve"/>
      <point x="32" y="548" type="line"/>
      <point x="32" y="501" type="line" smooth="yes"/>
      <point x="32" y="431"/>
      <point x="67" y="392"/>
      <point x="118" y="392" type="curve" smooth="yes"/>
      <point x="129" y="392"/>
      <point x="141" y="394"/>
      <point x="153" y="398" type="curve"/>
      <point x="156" y="397" type="line"/>
      <point x="154" y="384"/>
      <point x="144" y="375"/>
      <point x="124" y="352" type="curve" smooth="yes"/>
      <point x="74" y="295"/>
      <point x="71" y="258"/>
      <point x="71" y="208" type="curve" smooth="yes"/>
    </contour>
  </outline>
</glyph>
<glyph name="thoPhuthao-thai" format="2">
  <advance width="969"/>
  <unicode hex="0E12"/>
  <anchor x="889" y="0" name="bottom"/>
  <anchor x="911" y="536" name="top"/>
  <outline>
    <contour>
      <point x="276" y="-10" type="curve" smooth="yes"/>
      <point x="310" y="-10"/>
      <point x="331" y="-6"/>
      <point x="354" y="3" type="curve"/>
      <point x="336" y="136" type="line"/>
      <point x="328" y="133"/>
      <point x="318" y="132"/>
      <point x="309" y="132" type="curve" smooth="yes"/>
      <point x="249" y="132"/>
      <point x="233" y="181"/>
      <point x="233" y="283" type="curve" smooth="yes"/>
      <point x="233" y="375"/>
      <point x="246" y="406"/>
      <point x="269" y="406" type="curve" smooth="yes"/>
      <point x="280" y="406"/>
      <point x="292" y="399"/>
      <point x="296" y="367" type="curve"/>
      <point x="357" y="367" type="line"/>
      <point x="361" y="397"/>
      <point x="371" y="406"/>
      <point x="386" y="406" type="curve" smooth="yes"/>
      <point x="400" y="406"/>
      <point x="409" y="398"/>
      <point x="409" y="362" type="curve" smooth="yes"/>
      <point x="409" y="0" type="line"/>
      <point x="552" y="0" type="line"/>
      <point x="576" y="86" type="line"/>
      <point x="587" y="86" type="line"/>
      <point x="611" y="33"/>
      <point x="660" y="-10"/>
      <point x="751" y="-10" type="curve" smooth="yes"/>
      <point x="868" y="-10"/>
      <point x="911" y="60"/>
      <point x="911" y="180" type="curve" smooth="yes"/>
      <point x="911" y="548" type="line"/>
      <point x="719" y="548" type="line"/>
      <point x="719" y="231" type="line" smooth="yes"/>
      <point x="719" y="178"/>
      <point x="694" y="157"/>
      <point x="666" y="157" type="curve" smooth="yes"/>
      <point x="626" y="157"/>
      <point x="597" y="201"/>
      <point x="597" y="268" type="curve" smooth="yes"/>
      <point x="597" y="409" type="line" smooth="yes"/>
      <point x="597" y="504"/>
      <point x="552" y="558"/>
      <point x="459" y="558" type="curve" smooth="yes"/>
      <point x="411" y="558"/>
      <point x="356" y="544"/>
      <point x="333" y="487" type="curve"/>
      <point x="329" y="487" type="line"/>
      <point x="302" y="543"/>
      <point x="265" y="558"/>
      <point x="217" y="558" type="curve" smooth="yes"/>
      <point x="101" y="558"/>
      <point x="41" y="471"/>
      <point x="41" y="281" type="curve" smooth="yes"/>
      <point x="41" y="101"/>
      <point x="95" y="-10"/>
    </contour>
  </outline>
</glyph>
<glyph name="noNen-thai" format="2">
  <advance width="957"/>
  <unicode hex="0E13"/>
  <anchor x="889" y="0" name="bottom"/>
  <anchor x="889" y="536" name="top"/>
  <outline>
    <contour>
      <point x="212" y="-10" type="curve" smooth="yes"/>
      <point x="258" y="-10"/>
      <point x="297" y="0"/>
      <point x="322" y="13" type="curve"/>
      <point x="307" y="120" type="line"/>
      <point x="297" y="116"/>
      <point x="285" y="114"/>
      <point x="274" y="114" type="curve" smooth="yes"/>
      <point x="246" y="114"/>
      <point x="235" y="126"/>
      <point x="235" y="154" type="curve" smooth="yes"/>
      <point x="235" y="197" type="line" smooth="yes"/>
      <point x="235" y="240"/>
      <point x="252" y="253"/>
      <point x="300" y="255" type="curve"/>
      <point x="312" y="332" type="line"/>
      <point x="242" y="365" type="line"/>
      <point x="246" y="398"/>
      <point x="272" y="415"/>
      <point x="311" y="415" type="curve" smooth="yes"/>
      <point x="356" y="415"/>
      <point x="383" y="393"/>
      <point x="383" y="341" type="curve" smooth="yes"/>
      <point x="383" y="170" type="line" smooth="yes"/>
      <point x="383" y="50"/>
      <point x="430" y="-10"/>
      <point x="547" y="-10" type="curve" smooth="yes"/>
      <point x="633" y="-10"/>
      <point x="683" y="33"/>
      <point x="707" y="86" type="curve"/>
      <point x="718" y="86" type="line"/>
      <point x="742" y="0" type="line"/>
      <point x="889" y="0" type="line"/>
      <point x="889" y="548" type="line"/>
      <point x="697" y="548" type="line"/>
      <point x="697" y="268" type="line" smooth="yes"/>
      <point x="697" y="201"/>
      <point x="669" y="157"/>
      <point x="626" y="157" type="curve" smooth="yes"/>
      <point x="597" y="157"/>
      <point x="571" y="178"/>
      <point x="571" y="231" type="curve" smooth="yes"/>
      <point x="571" y="353" type="line" smooth="yes"/>
      <point x="571" y="484"/>
      <point x="487" y="563"/>
      <point x="314" y="563" type="curve" smooth="yes"/>
      <point x="136" y="563"/>
      <point x="44" y="478"/>
      <point x="44" y="368" type="curve" smooth="yes"/>
      <point x="44" y="348" type="line"/>
      <point x="150" y="310" type="line"/>
      <point x="149" y="306" type="line"/>
      <point x="83" y="284"/>
      <point x="49" y="251"/>
      <point x="49" y="177" type="curve" smooth="yes"/>
      <point x="49" y="134" type="line" smooth="yes"/>
      <point x="49" y="44"/>
      <point x="105" y="-10"/>
    </contour>
  </outline>
</glyph>
<glyph name="doDek-thai" format="2">
  <advance width="644"/>
  <unicode hex="0E14"/>
  <anchor x="585" y="0" name="bottom"/>
  <anchor x="556" y="536" name="top"/>
  <outline>
    <contour>
      <point x="265" y="-10" type="curve" smooth="yes"/>
      <point x="293" y="-10"/>
      <point x="329" y="-7"/>
      <point x="351" y="3" type="curve"/>
      <point x="333" y="145" type="line"/>
      <point x="324" y="143"/>
      <point x="311" y="141"/>
      <point x="301" y="141" type="curve" smooth="yes"/>
      <point x="253" y="141"/>
      <point x="232" y="189"/>
      <point x="232" y="269" type="curve" smooth="yes"/>
      <point x="232" y="378"/>
      <point x="266" y="411"/>
      <point x="321" y="411" type="curve" smooth="yes"/>
      <point x="371" y="411"/>
      <point x="394" y="384"/>
      <point x="394" y="337" type="curve" smooth="yes"/>
      <point x="394" y="0" type="line"/>
      <point x="586" y="0" type="line"/>
      <point x="586" y="351" type="line" smooth="yes"/>
      <point x="586" y="479"/>
      <point x="517" y="563"/>
      <point x="323" y="563" type="curve" smooth="yes"/>
      <point x="157" y="563"/>
      <point x="36" y="503"/>
      <point x="36" y="265" type="curve" smooth="yes"/>
      <point x="36" y="97"/>
      <point x="99" y="-10"/>
    </contour>
  </outline>
</glyph>
<glyph name="toTao-thai" format="2">
  <advance width="664"/>
  <unicode hex="0E15"/>
  <note>
uni0E15
</note>
  <anchor x="607" y="0" name="bottom"/>
  <anchor x="576" y="536" name="top"/>
  <outline>
    <contour>
      <point x="281" y="-10" type="curve" smooth="yes"/>
      <point x="313" y="-10"/>
      <point x="335" y="-6"/>
      <point x="358" y="3" type="curve"/>
      <point x="340" y="136" type="line"/>
      <point x="332" y="133"/>
      <point x="322" y="132"/>
      <point x="312" y="132" type="curve" smooth="yes"/>
      <point x="254" y="132"/>
      <point x="237" y="182"/>
      <point x="237" y="278" type="curve" smooth="yes"/>
      <point x="237" y="374"/>
      <point x="250" y="406"/>
      <point x="271" y="406" type="curve" smooth="yes"/>
      <point x="285" y="406"/>
      <point x="296" y="399"/>
      <point x="300" y="367" type="curve"/>
      <point x="362" y="367" type="line"/>
      <point x="366" y="397"/>
      <point x="376" y="406"/>
      <point x="392" y="406" type="curve" smooth="yes"/>
      <point x="405" y="406"/>
      <point x="414" y="397"/>
      <point x="414" y="362" type="curve" smooth="yes"/>
      <point x="414" y="0" type="line"/>
      <point x="606" y="0" type="line"/>
      <point x="606" y="409" type="line" smooth="yes"/>
      <point x="606" y="504"/>
      <point x="561" y="558"/>
      <point x="464" y="558" type="curve" smooth="yes"/>
      <point x="415" y="558"/>
      <point x="360" y="544"/>
      <point x="337" y="487" type="curve"/>
      <point x="333" y="487" type="line"/>
      <point x="306" y="543"/>
      <point x="269" y="558"/>
      <point x="221" y="558" type="curve" smooth="yes"/>
      <point x="100" y="558"/>
      <point x="41" y="471"/>
      <point x="41" y="279" type="curve" smooth="yes"/>
      <point x="41" y="101"/>
      <point x="95" y="-10"/>
    </contour>
  </outline>
</glyph>
<glyph name="thoThung-thai" format="2">
  <advance width="638"/>
  <unicode hex="0E16"/>
  <anchor x="580" y="0" name="bottom"/>
  <anchor x="560" y="536" name="top"/>
  <outline>
    <contour>
      <point x="212" y="-10" type="curve" smooth="yes"/>
      <point x="258" y="-10"/>
      <point x="297" y="0"/>
      <point x="322" y="13" type="curve"/>
      <point x="307" y="120" type="line"/>
      <point x="297" y="116"/>
      <point x="285" y="114"/>
      <point x="274" y="114" type="curve" smooth="yes"/>
      <point x="246" y="114"/>
      <point x="235" y="126"/>
      <point x="235" y="154" type="curve" smooth="yes"/>
      <point x="235" y="197" type="line" smooth="yes"/>
      <point x="235" y="240"/>
      <point x="252" y="253"/>
      <point x="300" y="255" type="curve"/>
      <point x="312" y="330" type="line"/>
      <point x="242" y="361" type="line"/>
      <point x="245" y="387"/>
      <point x="261" y="411"/>
      <point x="310" y="411" type="curve" smooth="yes"/>
      <point x="367" y="411"/>
      <point x="388" y="379"/>
      <point x="388" y="328" type="curve" smooth="yes"/>
      <point x="388" y="0" type="line"/>
      <point x="580" y="0" type="line"/>
      <point x="580" y="337" type="line" smooth="yes"/>
      <point x="580" y="484"/>
      <point x="489" y="563"/>
      <point x="316" y="563" type="curve" smooth="yes"/>
      <point x="137" y="563"/>
      <point x="44" y="478"/>
      <point x="44" y="368" type="curve" smooth="yes"/>
      <point x="44" y="348" type="line"/>
      <point x="150" y="310" type="line"/>
      <point x="149" y="306" type="line"/>
      <point x="83" y="284"/>
      <point x="49" y="245"/>
      <point x="49" y="171" type="curve" smooth="yes"/>
      <point x="49" y="134" type="line" smooth="yes"/>
      <point x="49" y="44"/>
      <point x="105" y="-10"/>
    </contour>
  </outline>
</glyph>
<glyph name="thoThahan-thai" format="2">
  <advance width="664"/>
  <unicode hex="0E17"/>
  <anchor x="606" y="0" name="bottom"/>
  <anchor x="576" y="536" name="top"/>
  <outline>
    <contour>
      <point x="68" y="0" type="line"/>
      <point x="260" y="0" type="line"/>
      <point x="260" y="225" type="line" smooth="yes"/>
      <point x="260" y="345"/>
      <point x="291" y="391"/>
      <point x="346" y="391" type="curve" smooth="yes"/>
      <point x="390" y="391"/>
      <point x="414" y="368"/>
      <point x="414" y="297" type="curve" smooth="yes"/>
      <point x="414" y="0" type="line"/>
      <point x="606" y="0" type="line"/>
      <point x="606" y="343" type="line" smooth="yes"/>
      <point x="606" y="486"/>
      <point x="546" y="558"/>
      <point x="413" y="558" type="curve" smooth="yes"/>
      <point x="320" y="558"/>
      <point x="267" y="514"/>
      <point x="245" y="462" type="curve"/>
      <point x="234" y="462" type="line"/>
      <point x="210" y="548" type="line"/>
      <point x="68" y="548" type="line"/>
    </contour>
  </outline>
</glyph>
<glyph name="thoThong-thai" format="2">
  <advance width="566"/>
  <unicode hex="0E18"/>
  <anchor x="477" y="0" name="bottom"/>
  <anchor x="518" y="536" name="top"/>
  <outline>
    <contour>
      <point x="294" y="-15" type="curve" smooth="yes"/>
      <point x="486" y="-15"/>
      <point x="538" y="70"/>
      <point x="538" y="174" type="curve" smooth="yes"/>
      <point x="538" y="274"/>
      <point x="491" y="325"/>
      <point x="373" y="361" type="curve" smooth="yes"/>
      <point x="288" y="387"/>
      <point x="228" y="384"/>
      <point x="228" y="408" type="curve" smooth="yes"/>
      <point x="228" y="424"/>
      <point x="256" y="427"/>
      <point x="285" y="427" type="curve" smooth="yes"/>
      <point x="360" y="427"/>
      <point x="450" y="406"/>
      <point x="491" y="392" type="curve"/>
      <point x="491" y="531" type="line"/>
      <point x="454" y="547"/>
      <point x="383" y="563"/>
      <point x="291" y="563" type="curve" smooth="yes"/>
      <point x="148" y="563"/>
      <point x="36" y="525"/>
      <point x="36" y="399" type="curve" smooth="yes"/>
      <point x="36" y="300"/>
      <point x="104" y="272"/>
      <point x="206" y="249" type="curve" smooth="yes"/>
      <point x="299" y="228"/>
      <point x="358" y="224"/>
      <point x="358" y="169" type="curve" smooth="yes"/>
      <point x="358" y="130"/>
      <point x="328" y="113"/>
      <point x="281" y="113" type="curve" smooth="yes"/>
      <point x="258" y="113"/>
      <point x="235" y="117"/>
      <point x="213" y="122" type="curve"/>
      <point x="213" y="233" type="line"/>
      <point x="54" y="233" type="line"/>
      <point x="54" y="25" type="line"/>
      <point x="123" y="1"/>
      <point x="211" y="-15"/>
    </contour>
  </outline>
</glyph>
<glyph name="noNu-thai" format="2">
  <advance width="664"/>
  <unicode hex="0E19"/>
  <note>
uni0E19
</note>
  <anchor x="596" y="0" name="bottom"/>
  <anchor x="596" y="536" name="top"/>
  <outline>
    <contour>
      <point x="246" y="-10" type="curve" smooth="yes"/>
      <point x="348" y="-10"/>
      <point x="396" y="34"/>
      <point x="419" y="86" type="curve"/>
      <point x="430" y="86" type="line"/>
      <point x="454" y="0" type="line"/>
      <point x="596" y="0" type="line"/>
      <point x="596" y="548" type="line"/>
      <point x="404" y="548" type="line"/>
      <point x="404" y="323" type="line" smooth="yes"/>
      <point x="404" y="201"/>
      <point x="373" y="157"/>
      <point x="316" y="157" type="curve" smooth="yes"/>
      <point x="274" y="157"/>
      <point x="250" y="181"/>
      <point x="250" y="251" type="curve" smooth="yes"/>
      <point x="250" y="548" type="line"/>
      <point x="58" y="548" type="line"/>
      <point x="58" y="210" type="line" smooth="yes"/>
      <point x="58" y="70"/>
      <point x="119" y="-10"/>
    </contour>
  </outline>
</glyph>
<glyph name="poPla-thai" format="2">
  <advance width="652"/>
  <unicode hex="0E1B"/>
  <note>
uni0E1B
</note>
  <anchor x="562" y="0" name="bottom"/>
  <anchor x="359" y="536" name="top"/>
  <outline>
    <contour>
      <point x="325" y="-15" type="curve" smooth="yes"/>
      <point x="511" y="-15"/>
      <point x="592" y="74"/>
      <point x="592" y="240" type="curve" smooth="yes"/>
      <point x="592" y="745" type="line"/>
      <point x="400" y="745" type="line"/>
      <point x="400" y="227" type="line" smooth="yes"/>
      <point x="400" y="169"/>
      <point x="378" y="137"/>
      <point x="325" y="137" type="curve" smooth="yes"/>
      <point x="272" y="137"/>
      <point x="250" y="169"/>
      <point x="250" y="227" type="curve" smooth="yes"/>
      <point x="250" y="548" type="line"/>
      <point x="58" y="548" type="line"/>
      <point x="58" y="240" type="line" smooth="yes"/>
      <point x="58" y="74"/>
      <point x="139" y="-15"/>
    </contour>
  </outline>
</glyph>
<glyph name="foFa-thai" format="2">
  <advance width="702"/>
  <unicode hex="0E1D"/>
  <anchor x="634" y="0" name="bottom"/>
  <anchor x="399" y="536" name="top"/>
  <outline>
    <contour>
      <point x="64" y="0" type="line"/>
      <point x="251" y="0" type="line"/>
      <point x="347" y="187" type="line"/>
      <point x="351" y="187" type="line"/>
      <point x="447" y="0" type="line"/>
      <point x="634" y="0" type="line"/>
      <point x="634" y="745" type="line"/>
      <point x="458" y="745" type="line"/>
      <point x="458" y="334" type="line" smooth="yes"/>
      <point x="458" y="307"/>
      <point x="460" y="261"/>
      <point x="469" y="187" type="curve"/>
      <point x="464" y="187" type="line"/>
      <point x="440" y="242"/>
      <point x="428" y="266"/>
      <point x="405" y="310" type="curve" smooth="yes"/>
      <point x="377" y="363" type="line"/>
      <point x="321" y="363" type="line"/>
      <point x="293" y="310" type="line" smooth="yes"/>
      <point x="280" y="285"/>
      <point x="262" y="254"/>
      <point x="234" y="187" type="curve"/>
      <point x="229" y="187" type="line"/>
      <point x="238" y="261"/>
      <point x="240" y="307"/>
      <point x="240" y="334" type="curve" smooth="yes"/>
      <point x="240" y="385" type="line" smooth="yes"/>
      <point x="240" y="407"/>
      <point x="247" y="420"/>
      <point x="268" y="420" type="curve" smooth="yes"/>
      <point x="274" y="420"/>
      <point x="284" y="419"/>
      <point x="293" y="416" type="curve"/>
      <point x="319" y="535" type="line"/>
      <point x="299" y="546"/>
      <point x="267" y="558"/>
      <point x="214" y="558" type="curve" smooth="yes"/>
      <point x="121" y="558"/>
      <point x="64" y="522"/>
      <point x="64" y="408" type="curve" smooth="yes"/>
    </contour>
  </outline>
</glyph>
<glyph name="foFan-thai" format="2">
  <advance width="742"/>
  <unicode hex="0E1F"/>
  <anchor x="635" y="0" name="bottom"/>
  <anchor x="475" y="536" name="top"/>
  <outline>
    <contour>
      <point x="113" y="0" type="line"/>
      <point x="295" y="0" type="line"/>
      <point x="342" y="172" type="line" smooth="yes"/>
      <point x="361" y="243"/>
      <point x="366" y="284"/>
      <point x="372" y="321" type="curve"/>
      <point x="376" y="321" type="line"/>
      <point x="381" y="284"/>
      <point x="385" y="238"/>
      <point x="402" y="172" type="curve" smooth="yes"/>
      <point x="447" y="0" type="line"/>
      <point x="635" y="0" type="line"/>
      <point x="746" y="745" type="line"/>
      <point x="563" y="745" type="line"/>
      <point x="525" y="386" type="line" smooth="yes"/>
      <point x="522" y="358"/>
      <point x="516" y="304"/>
      <point x="512" y="239" type="curve"/>
      <point x="509" y="239" type="line"/>
      <point x="492" y="303"/>
      <point x="480" y="356"/>
      <point x="471" y="389" type="curve" smooth="yes"/>
      <point x="427" y="548" type="line"/>
      <point x="322" y="548" type="line"/>
      <point x="277" y="389" type="line" smooth="yes"/>
      <point x="268" y="356"/>
      <point x="256" y="303"/>
      <point x="239" y="239" type="curve"/>
      <point x="236" y="239" type="line"/>
      <point x="232" y="304"/>
      <point x="226" y="358"/>
      <point x="223" y="386" type="curve" smooth="yes"/>
      <point x="203" y="548" type="line"/>
      <point x="20" y="548" type="line"/>
    </contour>
  </outline>
</glyph>
<glyph name="phoSamphao-thai" format="2">
  <advance width="657"/>
  <unicode hex="0E20"/>
  <anchor x="599" y="0" name="bottom"/>
  <anchor x="579" y="536" name="top"/>
  <outline>
    <contour>
      <point x="128" y="-10" type="curve" smooth="yes"/>
      <point x="216" y="-10"/>
      <point x="278" y="28"/>
      <point x="278" y="118" type="curve" smooth="yes"/>
      <point x="278" y="192" type="line" smooth="yes"/>
      <point x="278" y="235"/>
      <point x="287" y="254"/>
      <point x="319" y="255" type="curve"/>
      <point x="331" y="331" type="line"/>
      <point x="261" y="361" type="line"/>
      <point x="264" y="387"/>
      <point x="280" y="411"/>
      <point x="329" y="411" type="curve" smooth="yes"/>
      <point x="386" y="411"/>
      <point x="407" y="379"/>
      <point x="407" y="328" type="curve" smooth="yes"/>
      <point x="407" y="0" type="line"/>
      <point x="599" y="0" type="line"/>
      <point x="599" y="337" type="line" smooth="yes"/>
      <point x="599" y="484"/>
      <point x="509" y="563"/>
      <point x="333" y="563" type="curve" smooth="yes"/>
      <point x="151" y="563"/>
      <point x="63" y="478"/>
      <point x="63" y="368" type="curve" smooth="yes"/>
      <point x="63" y="348" type="line"/>
      <point x="169" y="310" type="line"/>
      <point x="168" y="306" type="line"/>
      <point x="115" y="292"/>
      <point x="92" y="255"/>
      <point x="92" y="201" type="curve" smooth="yes"/>
      <point x="92" y="142" type="line" smooth="yes"/>
      <point x="92" y="120"/>
      <point x="82" y="109"/>
      <point x="59" y="109" type="curve" smooth="yes"/>
      <point x="52" y="109"/>
      <point x="45" y="110"/>
      <point x="37" y="113" type="curve"/>
      <point x="20" y="15" type="line"/>
      <point x="44" y="1"/>
      <point x="81" y="-10"/>
    </contour>
  </outline>
</glyph>
<glyph name="moMa-thai" format="2">
  <advance width="664"/>
  <unicode hex="0E21"/>
  <note>
uni0E21
</note>
  <anchor x="595" y="0" name="bottom"/>
  <anchor x="615" y="536" name="top"/>
  <outline>
    <contour>
      <point x="424" y="-10" type="curve" smooth="yes"/>
      <point x="547" y="-10"/>
      <point x="606" y="70"/>
      <point x="606" y="200" type="curve" smooth="yes"/>
      <point x="606" y="548" type="line"/>
      <point x="414" y="548" type="line"/>
      <point x="414" y="251" type="line" smooth="yes"/>
      <point x="414" y="181"/>
      <point x="390" y="157"/>
      <point x="348" y="157" type="curve" smooth="yes"/>
      <point x="291" y="157"/>
      <point x="260" y="201"/>
      <point x="260" y="323" type="curve" smooth="yes"/>
      <point x="260" y="548" type="line"/>
      <point x="68" y="548" type="line"/>
      <point x="68" y="0" type="line"/>
      <point x="210" y="0" type="line"/>
      <point x="234" y="86" type="line"/>
      <point x="245" y="86" type="line"/>
      <point x="269" y="33"/>
      <point x="322" y="-10"/>
    </contour>
  </outline>
</glyph>
<glyph name="yoYak-thai" format="2">
  <advance width="637"/>
  <unicode hex="0E22"/>
  <note>
uni0E22
</note>
  <anchor x="549" y="0" name="bottom"/>
  <anchor x="579" y="536" name="top"/>
  <outline>
    <contour>
      <point x="306" y="-15" type="curve" smooth="yes"/>
      <point x="495" y="-15"/>
      <point x="579" y="53"/>
      <point x="579" y="188" type="curve" smooth="yes"/>
      <point x="579" y="548" type="line"/>
      <point x="387" y="548" type="line"/>
      <point x="387" y="184" type="line" smooth="yes"/>
      <point x="387" y="156"/>
      <point x="369" y="126"/>
      <point x="311" y="126" type="curve" smooth="yes"/>
      <point x="250" y="126"/>
      <point x="234" y="159"/>
      <point x="234" y="183" type="curve" smooth="yes"/>
      <point x="234" y="213"/>
      <point x="258" y="227"/>
      <point x="302" y="227" type="curve" smooth="yes"/>
      <point x="324" y="227" type="line"/>
      <point x="324" y="339" type="line"/>
      <point x="302" y="339" type="line" smooth="yes"/>
      <point x="267" y="339"/>
      <point x="232" y="347"/>
      <point x="232" y="383" type="curve" smooth="yes"/>
      <point x="232" y="406"/>
      <point x="247" y="422"/>
      <point x="280" y="422" type="curve" smooth="yes"/>
      <point x="294" y="422"/>
      <point x="310" y="419"/>
      <point x="318" y="416" type="curve"/>
      <point x="346" y="540" type="line"/>
      <point x="323" y="550"/>
      <point x="278" y="558"/>
      <point x="230" y="558" type="curve" smooth="yes"/>
      <point x="94" y="558"/>
      <point x="42" y="494"/>
      <point x="42" y="417" type="curve" smooth="yes"/>
      <point x="42" y="348"/>
      <point x="84" y="316"/>
      <point x="134" y="298" type="curve"/>
      <point x="134" y="290" type="line"/>
      <point x="89" y="278"/>
      <point x="40" y="241"/>
      <point x="40" y="158" type="curve" smooth="yes"/>
      <point x="40" y="56"/>
      <point x="113" y="-15"/>
    </contour>
  </outline>
</glyph>
<glyph name="roRua-thai" format="2">
  <advance width="535"/>
  <unicode hex="0E23"/>
  <note>
uni0E23
</note>
  <anchor x="451" y="0" name="bottom"/>
  <anchor x="493" y="536" name="top"/>
  <outline>
    <contour>
      <point x="273" y="-15" type="curve" smooth="yes"/>
      <point x="454" y="-15"/>
      <point x="507" y="72"/>
      <point x="507" y="170" type="curve" smooth="yes"/>
      <point x="507" y="259"/>
      <point x="463" y="303"/>
      <point x="353" y="341" type="curve" smooth="yes"/>
      <point x="288" y="364"/>
      <point x="237" y="369"/>
      <point x="237" y="395" type="curve" smooth="yes"/>
      <point x="237" y="414"/>
      <point x="264" y="419"/>
      <point x="293" y="419" type="curve" smooth="yes"/>
      <point x="351" y="419"/>
      <point x="427" y="399"/>
      <point x="464" y="384" type="curve"/>
      <point x="464" y="531" type="line"/>
      <point x="429" y="547"/>
      <point x="364" y="563"/>
      <point x="283" y="563" type="curve" smooth="yes"/>
      <point x="150" y="563"/>
      <point x="45" y="520"/>
      <point x="45" y="392" type="curve" smooth="yes"/>
      <point x="45" y="290"/>
      <point x="112" y="254"/>
      <point x="201" y="220" type="curve" smooth="yes"/>
      <point x="275" y="192"/>
      <point x="315" y="185"/>
      <point x="315" y="159" type="curve" smooth="yes"/>
      <point x="315" y="144"/>
      <point x="302" y="134"/>
      <point x="263" y="134" type="curve" smooth="yes"/>
      <point x="192" y="134"/>
      <point x="119" y="168"/>
      <point x="79" y="194" type="curve"/>
      <point x="26" y="43" type="line"/>
      <point x="97" y="3"/>
      <point x="191" y="-15"/>
    </contour>
  </outline>
</glyph>
<glyph name="ru-thai" format="2">
  <advance width="638"/>
  <unicode hex="0E24"/>
  <anchor x="580" y="-200" name="bottom"/>
  <anchor x="563" y="536" name="top"/>
  <outline>
    <contour>
      <point x="388" y="-220" type="line"/>
      <point x="580" y="-220" type="line"/>
      <point x="580" y="100" type="line"/>
      <point x="388" y="100" type="line"/>
    </contour>
    <component base="thoThung-thai"/>
  </outline>
</glyph>
<glyph name="loLing-thai" format="2">
  <advance width="614"/>
  <unicode hex="0E25"/>
  <anchor x="556" y="0" name="bottom"/>
  <anchor x="550" y="536" name="top"/>
  <outline>
    <contour>
      <point x="368" y="0" type="line"/>
      <point x="556" y="0" type="line"/>
      <point x="556" y="337" type="line" smooth="yes"/>
      <point x="556" y="518"/>
      <point x="434" y="563"/>
      <point x="300" y="563" type="curve" smooth="yes"/>
      <point x="199" y="563"/>
      <point x="121" y="537"/>
      <point x="83" y="519" type="curve"/>
      <point x="83" y="366" type="line"/>
      <point x="127" y="392"/>
      <point x="204" y="419"/>
      <point x="275" y="419" type="curve" smooth="yes"/>
      <point x="336" y="419"/>
      <point x="368" y="399"/>
      <point x="368" y="350" type="curve" smooth="yes"/>
    </contour>
    <contour>
      <point x="209" y="-10" type="curve" smooth="yes"/>
      <point x="249" y="-10"/>
      <point x="291" y="-3"/>
      <point x="316" y="6" type="curve"/>
      <point x="303" y="118" type="line"/>
      <point x="292" y="115"/>
      <point x="277" y="111"/>
      <point x="264" y="111" type="curve" smooth="yes"/>
      <point x="238" y="111"/>
      <point x="219" y="127"/>
      <point x="219" y="152" type="curve" smooth="yes"/>
      <point x="219" y="176"/>
      <point x="236" y="197"/>
      <point x="279" y="202" type="curve" smooth="yes"/>
      <point x="398" y="216" type="line"/>
      <point x="398" y="347" type="line"/>
      <point x="258" y="334" type="line" smooth="yes"/>
      <point x="101" y="319"/>
      <point x="29" y="251"/>
      <point x="29" y="146" type="curve" smooth="yes"/>
      <point x="29" y="47"/>
      <point x="93" y="-10"/>
    </contour>
  </outline>
</glyph>
<glyph name="lu-thai" format="2">
  <advance width="657"/>
  <unicode hex="0E26"/>
  <anchor x="599" y="-198" name="bottom"/>
  <anchor x="563" y="536" name="top"/>
  <outline>
    <contour>
      <point x="407" y="-220" type="line"/>
      <point x="599" y="-220" type="line"/>
      <point x="599" y="100" type="line"/>
      <point x="407" y="100" type="line"/>
    </contour>
    <component base="phoSamphao-thai"/>
  </outline>
</glyph>
<glyph name="woWaen-thai" format="2">
  <advance width="526"/>
  <unicode hex="0E27"/>
  <guideline x="447" y="129" angle="90"/>
  <anchor x="421" y="0" name="bottom"/>
  <anchor x="488" y="536" name="top"/>
  <outline>
    <contour>
      <point x="229" y="-15" type="curve" smooth="yes"/>
      <point x="392" y="-15"/>
      <point x="490" y="78"/>
      <point x="490" y="277" type="curve" smooth="yes"/>
      <point x="490" y="460"/>
      <point x="407" y="563"/>
      <point x="220" y="563" type="curve" smooth="yes"/>
      <point x="151" y="563"/>
      <point x="94" y="549"/>
      <point x="51" y="531" type="curve"/>
      <point x="51" y="375" type="line"/>
      <point x="81" y="394"/>
      <point x="135" y="411"/>
      <point x="181" y="411" type="curve" smooth="yes"/>
      <point x="258" y="411"/>
      <point x="294" y="364"/>
      <point x="294" y="277" type="curve" smooth="yes"/>
      <point x="294" y="182"/>
      <point x="252" y="137"/>
      <point x="194" y="137" type="curve" smooth="yes"/>
      <point x="159" y="137"/>
      <point x="108" y="153"/>
      <point x="78" y="171" type="curve"/>
      <point x="30" y="33" type="line"/>
      <point x="80" y="6"/>
      <point x="151" y="-15"/>
    </contour>
  </outline>
</glyph>
<glyph name="soSala-thai" format="2">
  <advance width="676"/>
  <unicode hex="0E28"/>
  <anchor x="608" y="0" name="bottom"/>
  <anchor x="572" y="536" name="top"/>
  <outline>
    <contour>
      <point x="58" y="0" type="line"/>
      <point x="248" y="0" type="line"/>
      <point x="248" y="42" type="line" smooth="yes"/>
      <point x="248" y="109"/>
      <point x="268" y="165"/>
      <point x="353" y="165" type="curve" smooth="yes"/>
      <point x="371" y="165" type="line"/>
      <point x="371" y="304" type="line"/>
      <point x="353" y="304" type="line" smooth="yes"/>
      <point x="302" y="304"/>
      <point x="275" y="292"/>
      <point x="252" y="240" type="curve"/>
      <point x="248" y="241" type="line"/>
      <point x="248" y="311" type="line" smooth="yes"/>
      <point x="248" y="369"/>
      <point x="270" y="411"/>
      <point x="333" y="411" type="curve" smooth="yes"/>
      <point x="396" y="411"/>
      <point x="418" y="369"/>
      <point x="418" y="311" type="curve" smooth="yes"/>
      <point x="418" y="0" type="line"/>
      <point x="608" y="0" type="line"/>
      <point x="608" y="306" type="line" smooth="yes"/>
      <point x="608" y="394"/>
      <point x="585" y="462"/>
      <point x="511" y="486" type="curve"/>
      <point x="480" y="543"/>
      <point x="413" y="563"/>
      <point x="336" y="563" type="curve" smooth="yes"/>
      <point x="143" y="563"/>
      <point x="58" y="474"/>
      <point x="58" y="308" type="curve" smooth="yes"/>
    </contour>
    <contour>
      <point x="515" y="416" type="line"/>
      <point x="623" y="452"/>
      <point x="651" y="523"/>
      <point x="651" y="584" type="curve"/>
      <point x="504" y="584" type="line"/>
      <point x="508" y="551"/>
      <point x="486" y="524"/>
      <point x="430" y="502" type="curve"/>
    </contour>
  </outline>
</glyph>
<glyph name="soRusi-thai" format="2">
  <advance width="695"/>
  <unicode hex="0E29"/>
  <anchor x="582" y="0" name="bottom"/>
  <anchor x="612" y="536" name="top"/>
  <outline>
    <contour>
      <point x="335" y="-15" type="curve" smooth="yes"/>
      <point x="531" y="-15"/>
      <point x="612" y="74"/>
      <point x="612" y="240" type="curve" smooth="yes"/>
      <point x="612" y="548" type="line"/>
      <point x="422" y="548" type="line"/>
      <point x="422" y="228" type="line" smooth="yes"/>
      <point x="422" y="161"/>
      <point x="398" y="135"/>
      <point x="339" y="135" type="curve" smooth="yes"/>
      <point x="272" y="135"/>
      <point x="248" y="168"/>
      <point x="248" y="228" type="curve" smooth="yes"/>
      <point x="248" y="548" type="line"/>
      <point x="58" y="548" type="line"/>
      <point x="58" y="240" type="line" smooth="yes"/>
      <point x="58" y="74"/>
      <point x="139" y="-15"/>
    </contour>
    <contour>
      <point x="402" y="212" type="curve" smooth="yes"/>
      <point x="664" y="212" type="line"/>
      <point x="664" y="324" type="line"/>
      <point x="414" y="324" type="line" smooth="yes"/>
      <point x="398" y="324"/>
      <point x="386" y="338"/>
      <point x="386" y="356" type="curve" smooth="yes"/>
      <point x="386" y="364"/>
      <point x="388" y="378"/>
      <point x="392" y="386" type="curve"/>
      <point x="290" y="409" type="line"/>
      <point x="275" y="391"/>
      <point x="267" y="357"/>
      <point x="267" y="329" type="curve" smooth="yes"/>
      <point x="267" y="274"/>
      <point x="298" y="212"/>
    </contour>
  </outline>
</glyph>
<glyph name="soSua-thai" format="2">
  <advance width="620"/>
  <unicode hex="0E2A"/>
  <note>
uni0E2A
</note>
  <anchor x="556" y="0" name="bottom"/>
  <anchor x="556" y="536" name="top"/>
  <outline>
    <contour>
      <point x="368" y="0" type="line"/>
      <point x="556" y="0" type="line"/>
      <point x="556" y="337" type="line" smooth="yes"/>
      <point x="556" y="424"/>
      <point x="528" y="479"/>
      <point x="465" y="493" type="curve"/>
      <point x="437" y="551"/>
      <point x="371" y="563"/>
      <point x="298" y="563" type="curve" smooth="yes"/>
      <point x="200" y="563"/>
      <point x="121" y="537"/>
      <point x="83" y="519" type="curve"/>
      <point x="83" y="366" type="line"/>
      <point x="127" y="392"/>
      <point x="204" y="419"/>
      <point x="275" y="419" type="curve" smooth="yes"/>
      <point x="336" y="419"/>
      <point x="368" y="399"/>
      <point x="368" y="350" type="curve" smooth="yes"/>
    </contour>
    <contour>
      <point x="209" y="-10" type="curve" smooth="yes"/>
      <point x="249" y="-10"/>
      <point x="291" y="-3"/>
      <point x="316" y="6" type="curve"/>
      <point x="303" y="118" type="line"/>
      <point x="292" y="115"/>
      <point x="277" y="111"/>
      <point x="264" y="111" type="curve" smooth="yes"/>
      <point x="238" y="111"/>
      <point x="219" y="127"/>
      <point x="219" y="152" type="curve" smooth="yes"/>
      <point x="219" y="176"/>
      <point x="236" y="197"/>
      <point x="279" y="202" type="curve" smooth="yes"/>
      <point x="398" y="216" type="line"/>
      <point x="398" y="347" type="line"/>
      <point x="258" y="334" type="line" smooth="yes"/>
      <point x="101" y="319"/>
      <point x="29" y="251"/>
      <point x="29" y="146" type="curve" smooth="yes"/>
      <point x="29" y="47"/>
      <point x="93" y="-10"/>
    </contour>
    <contour>
      <point x="463" y="416" type="line"/>
      <point x="571" y="452"/>
      <point x="599" y="523"/>
      <point x="599" y="584" type="curve"/>
      <point x="452" y="584" type="line"/>
      <point x="456" y="551"/>
      <point x="434" y="524"/>
      <point x="378" y="502" type="curve"/>
    </contour>
  </outline>
</glyph>
<glyph name="hoHip-thai" format="2">
  <advance width="643"/>
  <unicode hex="0E2B"/>
  <note>
uni0E2B
</note>
  <anchor x="595" y="0" name="bottom"/>
  <anchor x="567" y="536" name="top"/>
  <outline>
    <contour>
      <point x="68" y="0" type="line"/>
      <point x="256" y="0" type="line"/>
      <point x="256" y="140" type="line"/>
      <point x="602" y="541" type="line"/>
      <point x="602" y="548" type="line"/>
      <point x="395" y="548" type="line"/>
      <point x="261" y="365" type="line"/>
      <point x="256" y="365" type="line"/>
      <point x="256" y="548" type="line"/>
      <point x="68" y="548" type="line"/>
    </contour>
    <contour>
      <point x="403" y="0" type="line"/>
      <point x="595" y="0" type="line"/>
      <point x="595" y="210" type="line" smooth="yes"/>
      <point x="595" y="304"/>
      <point x="536" y="387"/>
      <point x="420" y="387" type="curve"/>
      <point x="307" y="255" type="line"/>
      <point x="363" y="255"/>
      <point x="403" y="239"/>
      <point x="403" y="173" type="curve" smooth="yes"/>
    </contour>
  </outline>
</glyph>
<glyph name="loChula-thai" format="2">
  <advance width="735"/>
  <unicode hex="0E2C"/>
  <anchor x="640" y="0" name="bottom"/>
  <outline>
    <contour>
      <point x="98" y="0" type="line"/>
      <point x="290" y="0" type="line"/>
      <point x="327" y="117" type="line" smooth="yes"/>
      <point x="340" y="158"/>
      <point x="354" y="200"/>
      <point x="367" y="271" type="curve"/>
      <point x="371" y="271" type="line"/>
      <point x="383" y="200"/>
      <point x="395" y="158"/>
      <point x="407" y="117" type="curve" smooth="yes"/>
      <point x="442" y="0" type="line"/>
      <point x="645" y="0" type="line"/>
      <point x="706" y="425" type="line" smooth="yes"/>
      <point x="714" y="478"/>
      <point x="698" y="536"/>
      <point x="640" y="556" type="curve"/>
      <point x="640" y="560" type="line"/>
      <point x="717" y="573"/>
      <point x="749" y="634"/>
      <point x="749" y="709" type="curve" smooth="yes"/>
      <point x="749" y="714" type="line"/>
      <point x="569" y="714" type="line"/>
      <point x="569" y="709" type="line" smooth="yes"/>
      <point x="569" y="661"/>
      <point x="542" y="621"/>
      <point x="450" y="621" type="curve" smooth="yes"/>
      <point x="370" y="621" type="line"/>
      <point x="370" y="500" type="line"/>
      <point x="444" y="500" type="line" smooth="yes"/>
      <point x="505" y="500"/>
      <point x="528" y="476"/>
      <point x="520" y="408" type="curve" smooth="yes"/>
      <point x="513" y="346" type="line" smooth="yes"/>
      <point x="510" y="318"/>
      <point x="505" y="261"/>
      <point x="502" y="195" type="curve"/>
      <point x="499" y="195" type="line"/>
      <point x="484" y="244"/>
      <point x="467" y="288"/>
      <point x="451" y="333" type="curve" smooth="yes"/>
      <point x="418" y="425" type="line"/>
      <point x="320" y="425" type="line"/>
      <point x="286" y="333" type="line" smooth="yes"/>
      <point x="269" y="288"/>
      <point x="254" y="244"/>
      <point x="237" y="195" type="curve"/>
      <point x="234" y="195" type="line"/>
      <point x="235" y="259"/>
      <point x="232" y="320"/>
      <point x="229" y="348" type="curve" smooth="yes"/>
      <point x="208" y="548" type="line"/>
      <point x="20" y="548" type="line"/>
    </contour>
  </outline>
</glyph>
<glyph name="oAng-thai" format="2">
  <advance width="604"/>
  <unicode hex="0E2D"/>
  <note>
uni0E2D
</note>
  <anchor x="491" y="0" name="bottom"/>
  <anchor x="536" y="536" name="top"/>
  <outline>
    <contour>
      <point x="295" y="-15" type="curve" smooth="yes"/>
      <point x="487" y="-15"/>
      <point x="573" y="86"/>
      <point x="573" y="271" type="curve" smooth="yes"/>
      <point x="573" y="450"/>
      <point x="490" y="563"/>
      <point x="283" y="563" type="curve" smooth="yes"/>
      <point x="209" y="563"/>
      <point x="117" y="547"/>
      <point x="70" y="523" type="curve"/>
      <point x="70" y="368" type="line"/>
      <point x="105" y="386"/>
      <point x="184" y="411"/>
      <point x="242" y="411" type="curve" smooth="yes"/>
      <point x="346" y="411"/>
      <point x="375" y="356"/>
      <point x="375" y="258" type="curve" smooth="yes"/>
      <point x="375" y="161"/>
      <point x="348" y="123"/>
      <point x="294" y="123" type="curve" smooth="yes"/>
      <point x="244" y="123"/>
      <point x="223" y="157"/>
      <point x="223" y="205" type="curve" smooth="yes"/>
      <point x="223" y="216" type="line"/>
      <point x="305" y="216" type="line"/>
      <point x="305" y="327" type="line"/>
      <point x="42" y="327" type="line"/>
      <point x="38" y="299"/>
      <point x="36" y="247"/>
      <point x="36" y="223" type="curve" smooth="yes"/>
      <point x="36" y="71"/>
      <point x="118" y="-15"/>
    </contour>
  </outline>
</glyph>
<glyph name="hoNokhuk-thai" format="2">
  <advance width="618"/>
  <unicode hex="0E2E"/>
  <anchor x="506" y="0" name="bottom"/>
  <anchor x="529" y="536" name="top"/>
  <outline>
    <contour>
      <point x="293" y="-15" type="curve" smooth="yes"/>
      <point x="487" y="-15"/>
      <point x="573" y="91"/>
      <point x="573" y="261" type="curve" smooth="yes"/>
      <point x="573" y="371"/>
      <point x="537" y="442"/>
      <point x="466" y="476" type="curve"/>
      <point x="428" y="540"/>
      <point x="359" y="563"/>
      <point x="278" y="563" type="curve" smooth="yes"/>
      <point x="210" y="563"/>
      <point x="116" y="547"/>
      <point x="69" y="523" type="curve"/>
      <point x="69" y="368" type="line"/>
      <point x="107" y="388"/>
      <point x="181" y="411"/>
      <point x="245" y="411" type="curve" smooth="yes"/>
      <point x="336" y="411"/>
      <point x="375" y="364"/>
      <point x="375" y="254" type="curve" smooth="yes"/>
      <point x="375" y="161"/>
      <point x="347" y="123"/>
      <point x="294" y="123" type="curve" smooth="yes"/>
      <point x="244" y="123"/>
      <point x="223" y="157"/>
      <point x="223" y="205" type="curve" smooth="yes"/>
      <point x="223" y="216" type="line"/>
      <point x="305" y="216" type="line"/>
      <point x="305" y="327" type="line"/>
      <point x="42" y="327" type="line"/>
      <point x="38" y="299"/>
      <point x="36" y="247"/>
      <point x="36" y="223" type="curve" smooth="yes"/>
      <point x="36" y="71"/>
      <point x="119" y="-15"/>
    </contour>
    <contour>
      <point x="460" y="416" type="line"/>
      <point x="568" y="452"/>
      <point x="596" y="523"/>
      <point x="596" y="584" type="curve"/>
      <point x="449" y="584" type="line"/>
      <point x="453" y="551"/>
      <point x="431" y="524"/>
      <point x="375" y="502" type="curve"/>
    </contour>
  </outline>
</glyph>
<glyph name="paiyannoi-thai" format="2">
  <advance width="556"/>
  <unicode hex="0E2F"/>
  <outline>
    <contour>
      <point x="308" y="0" type="line"/>
      <point x="500" y="0" type="line"/>
      <point x="500" y="548" type="line"/>
      <point x="308" y="548" type="line"/>
      <point x="308" y="409" type="line" smooth="yes"/>
      <point x="308" y="367"/>
      <point x="287" y="345"/>
      <point x="245" y="345" type="curve" smooth="yes"/>
      <point x="204" y="345"/>
      <point x="183" y="365"/>
      <point x="183" y="394" type="curve" smooth="yes"/>
      <point x="183" y="422"/>
      <point x="203" y="435"/>
      <point x="227" y="435" type="curve" smooth="yes"/>
      <point x="233" y="435"/>
      <point x="240" y="435"/>
      <point x="250" y="432" type="curve"/>
      <point x="260" y="546" type="line"/>
      <point x="230" y="556"/>
      <point x="202" y="558"/>
      <point x="182" y="558" type="curve" smooth="yes"/>
      <point x="71" y="558"/>
      <point x="6" y="493"/>
      <point x="6" y="386" type="curve" smooth="yes"/>
      <point x="6" y="260"/>
      <point x="98" y="203"/>
      <point x="195" y="203" type="curve" smooth="yes"/>
      <point x="284" y="203"/>
      <point x="346" y="247"/>
      <point x="347" y="317" type="curve"/>
      <point x="308" y="313" type="line"/>
    </contour>
  </outline>
</glyph>
<glyph name="maiHanaKat-thai" format="2">
  <unicode hex="0E31"/>
  <anchor x="-68" y="536" name="_top"/>
  <anchor x="-68" y="752" name="top"/>
  <outline>
    <contour>
      <point x="-229" y="616" type="curve" smooth="yes"/>
      <point x="22" y="616" type="line"/>
      <point x="22" y="733" type="line"/>
      <point x="-172" y="733" type="line" smooth="yes"/>
      <point x="-200" y="733"/>
      <point x="-210" y="741"/>
      <point x="-210" y="760" type="curve" smooth="yes"/>
      <point x="-210" y="766"/>
      <point x="-209" y="775"/>
      <point x="-206" y="786" type="curve"/>
      <point x="-339" y="802" type="line"/>
      <point x="-354" y="772"/>
      <point x="-362" y="745"/>
      <point x="-362" y="719" type="curve" smooth="yes"/>
      <point x="-362" y="668"/>
      <point x="-332" y="616"/>
    </contour>
  </outline>
</glyph>
<glyph name="saraAa-thai" format="2">
  <advance width="461"/>
  <unicode hex="0E32"/>
  <outline>
    <contour>
      <point x="211" y="0" type="line"/>
      <point x="403" y="0" type="line"/>
      <point x="403" y="379" type="line" smooth="yes"/>
      <point x="403" y="521"/>
      <point x="315" y="563"/>
      <point x="198" y="563" type="curve" smooth="yes"/>
      <point x="124" y="563"/>
      <point x="64" y="546"/>
      <point x="34" y="533" type="curve"/>
      <point x="34" y="386" type="line"/>
      <point x="61" y="399"/>
      <point x="96" y="413"/>
      <point x="137" y="413" type="curve" smooth="yes"/>
      <point x="186" y="413"/>
      <point x="211" y="393"/>
      <point x="211" y="343" type="curve" smooth="yes"/>
    </contour>
  </outline>
</glyph>
<glyph name="saraI-thai" format="2">
  <unicode hex="0E34"/>
  <anchor x="-68" y="536" name="_top"/>
  <anchor x="-68" y="713" name="top"/>
  <outline>
    <contour>
      <point x="-553" y="616" type="line"/>
      <point x="-68" y="616" type="line"/>
      <point x="-68" y="745" type="line"/>
      <point x="-433" y="745" type="line"/>
      <point x="-553" y="695" type="line"/>
    </contour>
  </outline>
</glyph>
<glyph name="saraIi-thai" format="2">
  <unicode hex="0E35"/>
  <anchor x="-68" y="536" name="_top"/>
  <anchor x="-68" y="772" name="top"/>
  <outline>
    <contour>
      <point x="-553" y="616" type="line"/>
      <point x="-68" y="616" type="line"/>
      <point x="-68" y="745" type="line"/>
      <point x="-433" y="745" type="line"/>
      <point x="-553" y="695" type="line"/>
    </contour>
    <contour>
      <point x="-228" y="693" type="line"/>
      <point x="-68" y="693" type="line"/>
      <point x="-68" y="806" type="line"/>
      <point x="-228" y="806" type="line"/>
    </contour>
  </outline>
</glyph>
<glyph name="saraUe-thai" format="2">
  <unicode hex="0E36"/>
  <anchor x="-68" y="536" name="_top"/>
  <anchor x="-68" y="772" name="top"/>
  <outline>
    <contour>
      <point x="-553" y="616" type="line"/>
      <point x="-150" y="616" type="line" smooth="yes"/>
      <point x="-73" y="616"/>
      <point x="-38" y="659"/>
      <point x="-38" y="717" type="curve" smooth="yes"/>
      <point x="-38" y="775"/>
      <point x="-79" y="818"/>
      <point x="-149" y="818" type="curve" smooth="yes"/>
      <point x="-216" y="818"/>
      <point x="-256" y="779"/>
      <point x="-256" y="730" type="curve" smooth="yes"/>
      <point x="-256" y="719"/>
      <point x="-254" y="708"/>
      <point x="-250" y="696" type="curve"/>
      <point x="-212" y="745" type="line"/>
      <point x="-433" y="745" type="line"/>
      <point x="-553" y="695" type="line"/>
    </contour>
    <contour>
      <point x="-150" y="676" type="curve" smooth="yes"/>
      <point x="-180" y="676"/>
      <point x="-195" y="695"/>
      <point x="-195" y="717" type="curve" smooth="yes"/>
      <point x="-195" y="739"/>
      <point x="-179" y="756"/>
      <point x="-152" y="756" type="curve" smooth="yes"/>
      <point x="-124" y="756"/>
      <point x="-108" y="739"/>
      <point x="-108" y="715" type="curve" smooth="yes"/>
      <point x="-108" y="693"/>
      <point x="-122" y="676"/>
    </contour>
  </outline>
</glyph>
<glyph name="saraUee-thai" format="2">
  <unicode hex="0E37"/>
  <anchor x="-68" y="536" name="_top"/>
  <anchor x="-108" y="772" name="top"/>
  <outline>
    <contour>
      <point x="-552" y="616" type="line"/>
      <point x="-68" y="616" type="line"/>
      <point x="-68" y="745" type="line"/>
      <point x="-432" y="745" type="line"/>
      <point x="-552" y="695" type="line"/>
    </contour>
    <contour>
      <point x="-338" y="693" type="line"/>
      <point x="-228" y="693" type="line"/>
      <point x="-228" y="806" type="line"/>
      <point x="-338" y="806" type="line"/>
    </contour>
    <contour>
      <point x="-178" y="693" type="line"/>
      <point x="-68" y="693" type="line"/>
      <point x="-68" y="806" type="line"/>
      <point x="-178" y="806" type="line"/>
    </contour>
  </outline>
</glyph>
<glyph name="saraU-thai" format="2">
  <unicode hex="0E38"/>
  <anchor x="-68" y="0" name="_bottom"/>
  <anchor x="-68" y="-271" name="bottom"/>
  <outline>
    <contour>
      <point x="-231" y="-261" type="line"/>
      <point x="-68" y="-261" type="line"/>
      <point x="-68" y="-145" type="line" smooth="yes"/>
      <point x="-68" y="-95"/>
      <point x="-93" y="-64"/>
      <point x="-171" y="-64" type="curve" smooth="yes"/>
      <point x="-218" y="-64"/>
      <point x="-261" y="-75"/>
      <point x="-280" y="-83" type="curve"/>
      <point x="-273" y="-162" type="line"/>
      <point x="-267" y="-160"/>
      <point x="-260" y="-158"/>
      <point x="-253" y="-158" type="curve" smooth="yes"/>
      <point x="-238" y="-158"/>
      <point x="-231" y="-166"/>
      <point x="-231" y="-183" type="curve" smooth="yes"/>
    </contour>
  </outline>
</glyph>
<glyph name="saraUu-thai" format="2">
  <unicode hex="0E39"/>
  <guideline x="-173" y="424" angle="90"/>
  <anchor x="-68" y="0" name="_bottom"/>
  <anchor x="-68" y="-265" name="bottom"/>
  <outline>
    <contour>
      <point x="-240" y="-265" type="curve" smooth="yes"/>
      <point x="-117" y="-265"/>
      <point x="-68" y="-230"/>
      <point x="-68" y="-164" type="curve" smooth="yes"/>
      <point x="-68" y="-67" type="line"/>
      <point x="-220" y="-67" type="line"/>
      <point x="-220" y="-140" type="line" smooth="yes"/>
      <point x="-220" y="-161"/>
      <point x="-227" y="-170"/>
      <point x="-246" y="-170" type="curve" smooth="yes"/>
      <point x="-265" y="-170"/>
      <point x="-271" y="-161"/>
      <point x="-271" y="-140" type="curve" smooth="yes"/>
      <point x="-271" y="-125" type="line" smooth="yes"/>
      <point x="-271" y="-85"/>
      <point x="-300" y="-64"/>
      <point x="-365" y="-64" type="curve" smooth="yes"/>
      <point x="-390" y="-64"/>
      <point x="-435" y="-67"/>
      <point x="-453" y="-76" type="curve"/>
      <point x="-446" y="-149" type="line"/>
      <point x="-425" y="-144"/>
      <point x="-411" y="-147"/>
      <point x="-411" y="-169" type="curve" smooth="yes"/>
      <point x="-411" y="-186" type="line" smooth="yes"/>
      <point x="-411" y="-230"/>
      <point x="-362" y="-265"/>
    </contour>
  </outline>
</glyph>
<glyph name="phinthu-thai" format="2">
  <unicode hex="0E3A"/>
  <anchor x="-68" y="0" name="_bottom"/>
  <anchor x="-68" y="-233" name="bottom"/>
  <outline>
    <contour>
      <point x="-156" y="-223" type="curve" smooth="yes"/>
      <point x="-100" y="-223"/>
      <point x="-68" y="-193"/>
      <point x="-68" y="-138" type="curve" smooth="yes"/>
      <point x="-68" y="-83"/>
      <point x="-100" y="-53"/>
      <point x="-156" y="-53" type="curve" smooth="yes"/>
      <point x="-212" y="-53"/>
      <point x="-244" y="-83"/>
      <point x="-244" y="-138" type="curve" smooth="yes"/>
      <point x="-244" y="-193"/>
      <point x="-212" y="-223"/>
    </contour>
  </outline>
</glyph>
<glyph name="baht" format="2">
  <advance width="586"/>
  <unicode hex="0E3F"/>
  <outline>
    <contour>
      <point x="60" y="36" type="line"/>
      <point x="303" y="36" type="line" smooth="yes"/>
      <point x="440" y="36"/>
      <point x="526" y="104"/>
      <point x="526" y="222" type="curve" smooth="yes"/>
      <point x="526" y="314"/>
      <point x="470" y="359"/>
      <point x="393" y="372" type="curve"/>
      <point x="393" y="377" type="line"/>
      <point x="466" y="388"/>
      <point x="515" y="445"/>
      <point x="515" y="519" type="curve" smooth="yes"/>
      <point x="515" y="622"/>
      <point x="448" y="678"/>
      <point x="280" y="678" type="curve" smooth="yes"/>
      <point x="60" y="678" type="line"/>
    </contour>
    <contour>
      <point x="185" y="171" type="line"/>
      <point x="185" y="305" type="line"/>
      <point x="307" y="305" type="line" smooth="yes"/>
      <point x="366" y="305"/>
      <point x="384" y="273"/>
      <point x="384" y="239" type="curve" smooth="yes"/>
      <point x="384" y="199"/>
      <point x="365" y="171"/>
      <point x="310" y="171" type="curve" smooth="yes"/>
    </contour>
    <contour>
      <point x="185" y="432" type="line"/>
      <point x="185" y="547" type="line"/>
      <point x="299" y="547" type="line" smooth="yes"/>
      <point x="349" y="547"/>
      <point x="373" y="528"/>
      <point x="373" y="493" type="curve" smooth="yes"/>
      <point x="373" y="459"/>
      <point x="354" y="432"/>
      <point x="302" y="432" type="curve" smooth="yes"/>
    </contour>
    <contour>
      <point x="230" y="-59" type="line"/>
      <point x="309" y="-59" type="line"/>
      <point x="309" y="760" type="line"/>
      <point x="230" y="760" type="line"/>
    </contour>
  </outline>
</glyph>
<glyph name="saraE-thai" format="2">
  <advance width="365"/>
  <unicode hex="0E40"/>
  <outline>
    <contour>
      <point x="233" y="-10" type="curve" smooth="yes"/>
      <point x="279" y="-10"/>
      <point x="318" y="0"/>
      <point x="343" y="13" type="curve"/>
      <point x="328" y="130" type="line"/>
      <point x="318" y="126"/>
      <point x="305" y="124"/>
      <point x="296" y="124" type="curve" smooth="yes"/>
      <point x="275" y="124"/>
      <point x="266" y="136"/>
      <point x="266" y="157" type="curve" smooth="yes"/>
      <point x="266" y="548" type="line"/>
      <point x="74" y="548" type="line"/>
      <point x="74" y="134" type="line" smooth="yes"/>
      <point x="74" y="44"/>
      <point x="120" y="-10"/>
    </contour>
  </outline>
</glyph>
<glyph name="saraO-thai" format="2">
  <advance width="370"/>
  <unicode hex="0E42"/>
  <outline>
    <contour>
      <point x="96" y="448" type="line"/>
      <point x="288" y="448" type="line"/>
      <point x="288" y="571" type="line" smooth="yes"/>
      <point x="288" y="636"/>
      <point x="277" y="674"/>
      <point x="237" y="696" type="curve"/>
      <point x="238" y="700" type="line"/>
      <point x="385" y="700" type="line"/>
      <point x="385" y="835" type="line"/>
      <point x="136" y="835" type="line"/>
      <point x="16" y="775" type="line"/>
      <point x="16" y="700" type="line"/>
      <point x="74" y="700"/>
      <point x="96" y="668"/>
      <point x="96" y="588" type="curve" smooth="yes"/>
    </contour>
    <component base="saraE-thai" xOffset="22"/>
  </outline>
</glyph>
<glyph name="saraAiMaimuan-thai" format="2">
  <advance width="365"/>
  <unicode hex="0E43"/>
  <outline>
    <contour>
      <point x="240" y="-10" type="curve" smooth="yes"/>
      <point x="286" y="-10"/>
      <point x="325" y="0"/>
      <point x="350" y="13" type="curve"/>
      <point x="335" y="130" type="line"/>
      <point x="325" y="126"/>
      <point x="312" y="124"/>
      <point x="303" y="124" type="curve" smooth="yes"/>
      <point x="282" y="124"/>
      <point x="273" y="136"/>
      <point x="273" y="157" type="curve" smooth="yes"/>
      <point x="273" y="484" type="line" smooth="yes"/>
      <point x="273" y="533"/>
      <point x="290" y="545"/>
      <point x="323" y="590" type="curve" smooth="yes"/>
      <point x="345" y="620"/>
      <point x="369" y="658"/>
      <point x="369" y="712" type="curve" smooth="yes"/>
      <point x="369" y="806"/>
      <point x="297" y="853"/>
      <point x="181" y="853" type="curve" smooth="yes"/>
      <point x="100" y="853"/>
      <point x="39" y="830"/>
      <point x="21" y="820" type="curve"/>
      <point x="21" y="685" type="line"/>
      <point x="43" y="700"/>
      <point x="68" y="708"/>
      <point x="100" y="708" type="curve" smooth="yes"/>
      <point x="147" y="708"/>
      <point x="167" y="690"/>
      <point x="167" y="664" type="curve" smooth="yes"/>
      <point x="167" y="636"/>
      <point x="144" y="618"/>
      <point x="123" y="595" type="curve" smooth="yes"/>
      <point x="88" y="557"/>
      <point x="81" y="539"/>
      <point x="81" y="490" type="curve" smooth="yes"/>
      <point x="81" y="134" type="line" smooth="yes"/>
      <point x="81" y="44"/>
      <point x="127" y="-10"/>
    </contour>
  </outline>
</glyph>
<glyph name="saraAiMaimalai-thai" format="2">
  <advance width="367"/>
  <unicode hex="0E44"/>
  <outline>
    <contour>
      <point x="99" y="448" type="line"/>
      <point x="291" y="448" type="line"/>
      <point x="291" y="588" type="line" smooth="yes"/>
      <point x="291" y="673"/>
      <point x="333" y="700"/>
      <point x="382" y="700" type="curve"/>
      <point x="382" y="835" type="line"/>
      <point x="37" y="835" type="line"/>
      <point x="6" y="700" type="line"/>
      <point x="149" y="700" type="line"/>
      <point x="150" y="696" type="line"/>
      <point x="123" y="676"/>
      <point x="99" y="646"/>
      <point x="99" y="571" type="curve" smooth="yes"/>
    </contour>
    <component base="saraE-thai" xOffset="25"/>
  </outline>
</glyph>
<glyph name="lakkhangyao-thai" format="2">
  <advance width="461"/>
  <unicode hex="0E45"/>
  <outline>
    <contour>
      <point x="211" y="-220" type="line"/>
      <point x="403" y="-220" type="line"/>
      <point x="403" y="100" type="line"/>
      <point x="211" y="100" type="line"/>
    </contour>
    <component base="saraAa-thai"/>
  </outline>
</glyph>
<glyph name="maiyamok-thai" format="2">
  <advance width="662"/>
  <unicode hex="0E46"/>
  <outline>
    <contour>
      <point x="412" y="-220" type="line"/>
      <point x="604" y="-220" type="line"/>
      <point x="604" y="399" type="line" smooth="yes"/>
      <point x="604" y="534"/>
      <point x="536" y="563"/>
      <point x="454" y="563" type="curve" smooth="yes"/>
      <point x="394" y="563"/>
      <point x="353" y="547"/>
      <point x="333" y="511" type="curve"/>
      <point x="329" y="511" type="line"/>
      <point x="309" y="547"/>
      <point x="267" y="563"/>
      <point x="212" y="563" type="curve" smooth="yes"/>
      <point x="114" y="563"/>
      <point x="46" y="510"/>
      <point x="46" y="374" type="curve" smooth="yes"/>
      <point x="46" y="239"/>
      <point x="113" y="178"/>
      <point x="211" y="178" type="curve" smooth="yes"/>
      <point x="260" y="178"/>
      <point x="296" y="194"/>
      <point x="315" y="211" type="curve"/>
      <point x="284" y="324" type="line"/>
      <point x="275" y="321"/>
      <point x="266" y="319"/>
      <point x="257" y="319" type="curve" smooth="yes"/>
      <point x="230" y="319"/>
      <point x="218" y="334"/>
      <point x="218" y="376" type="curve" smooth="yes"/>
      <point x="218" y="417"/>
      <point x="229" y="433"/>
      <point x="251" y="433" type="curve" smooth="yes"/>
      <point x="270" y="433"/>
      <point x="282" y="422"/>
      <point x="282" y="397" type="curve" smooth="yes"/>
      <point x="282" y="371" type="line"/>
      <point x="350" y="371" type="line"/>
      <point x="350" y="397" type="line" smooth="yes"/>
      <point x="350" y="422"/>
      <point x="361" y="433"/>
      <point x="381" y="433" type="curve" smooth="yes"/>
      <point x="401" y="433"/>
      <point x="412" y="422"/>
      <point x="412" y="397" type="curve" smooth="yes"/>
    </contour>
  </outline>
</glyph>
<glyph name="maitaikhu-thai" format="2">
  <unicode hex="0E47"/>
  <anchor x="-68" y="536" name="_top"/>
  <anchor x="-202" y="845" name="top"/>
  <outline>
    <contour>
      <point x="-204" y="611" type="curve" smooth="yes"/>
      <point x="-139" y="611"/>
      <point x="-97" y="646"/>
      <point x="-97" y="721" type="curve" smooth="yes"/>
      <point x="-97" y="745" type="line"/>
      <point x="-223" y="745" type="line"/>
      <point x="-223" y="729" type="line" smooth="yes"/>
      <point x="-223" y="710"/>
      <point x="-232" y="698"/>
      <point x="-249" y="698" type="curve" smooth="yes"/>
      <point x="-270" y="698"/>
      <point x="-281" y="716"/>
      <point x="-284" y="739" type="curve"/>
      <point x="-306" y="739" type="line"/>
      <point x="-345" y="700" type="line"/>
      <point x="-360" y="700"/>
      <point x="-369" y="716"/>
      <point x="-369" y="738" type="curve" smooth="yes"/>
      <point x="-369" y="768"/>
      <point x="-352" y="782"/>
      <point x="-331" y="782" type="curve" smooth="yes"/>
      <point x="-98" y="782" type="line"/>
      <point x="-98" y="865" type="line"/>
      <point x="-365" y="865" type="line" smooth="yes"/>
      <point x="-433" y="865"/>
      <point x="-496" y="824"/>
      <point x="-496" y="739" type="curve" smooth="yes"/>
      <point x="-496" y="658"/>
      <point x="-438" y="615"/>
      <point x="-347" y="615" type="curve"/>
      <point x="-296" y="656" type="line"/>
      <point x="-278" y="628"/>
      <point x="-248" y="611"/>
    </contour>
  </outline>
</glyph>
<glyph name="maiEk-thai" format="2">
  <unicode hex="0E48"/>
  <anchor x="-68" y="536" name="_top"/>
  <anchor x="-68" y="845" name="top"/>
  <outline>
    <contour>
      <point x="-250" y="616" type="line"/>
      <point x="-78" y="616" type="line"/>
      <point x="-78" y="835" type="line"/>
      <point x="-250" y="835" type="line"/>
    </contour>
  </outline>
</glyph>
<glyph name="maiTho-thai" format="2">
  <unicode hex="0E49"/>
  <anchor x="-58" y="536" name="_top"/>
  <anchor x="-138" y="845" name="top"/>
  <outline>
    <contour>
      <point x="-386" y="615" type="line"/>
      <point x="-58" y="615" type="line"/>
      <point x="-58" y="730" type="line"/>
      <point x="-229" y="730" type="line"/>
      <point x="-229" y="702" type="line"/>
      <point x="-192" y="718"/>
      <point x="-182" y="745"/>
      <point x="-182" y="769" type="curve" smooth="yes"/>
      <point x="-182" y="830"/>
      <point x="-221" y="855"/>
      <point x="-286" y="855" type="curve" smooth="yes"/>
      <point x="-318" y="855"/>
      <point x="-369" y="849"/>
      <point x="-396" y="826" type="curve"/>
      <point x="-377" y="751" type="line"/>
      <point x="-369" y="755"/>
      <point x="-357" y="758"/>
      <point x="-349" y="758" type="curve" smooth="yes"/>
      <point x="-335" y="758"/>
      <point x="-322" y="749"/>
      <point x="-322" y="728" type="curve" smooth="yes"/>
      <point x="-322" y="690"/>
      <point x="-368" y="676"/>
      <point x="-386" y="669" type="curve"/>
    </contour>
  </outline>
</glyph>
<glyph name="maiTri-thai" format="2">
  <unicode hex="0E4A"/>
  <anchor x="-68" y="536" name="_top"/>
  <anchor x="-174" y="845" name="top"/>
  <outline>
    <contour>
      <point x="-352" y="611" type="curve" smooth="yes"/>
      <point x="-329" y="611"/>
      <point x="-298" y="615"/>
      <point x="-287" y="623" type="curve"/>
      <point x="-292" y="699" type="line"/>
      <point x="-300" y="697"/>
      <point x="-304" y="697"/>
      <point x="-309" y="697" type="curve" smooth="yes"/>
      <point x="-327" y="697"/>
      <point x="-337" y="711"/>
      <point x="-337" y="727" type="curve" smooth="yes"/>
      <point x="-337" y="745"/>
      <point x="-325" y="757"/>
      <point x="-314" y="758" type="curve"/>
      <point x="-284" y="741" type="line"/>
      <point x="-280" y="741" type="line"/>
      <point x="-249" y="758" type="line"/>
      <point x="-238" y="757"/>
      <point x="-225" y="747"/>
      <point x="-225" y="727" type="curve" smooth="yes"/>
      <point x="-225" y="708"/>
      <point x="-236" y="700"/>
      <point x="-251" y="695" type="curve"/>
      <point x="-251" y="616" type="line"/>
      <point x="-28" y="616" type="line"/>
      <point x="-28" y="725" type="line"/>
      <point x="-118" y="725" type="line"/>
      <point x="-115" y="709" type="line"/>
      <point x="-104" y="720"/>
      <point x="-95" y="737"/>
      <point x="-95" y="762" type="curve" smooth="yes"/>
      <point x="-95" y="812"/>
      <point x="-127" y="852"/>
      <point x="-226" y="855" type="curve"/>
      <point x="-283" y="816" type="line"/>
      <point x="-350" y="855" type="line"/>
      <point x="-425" y="853"/>
      <point x="-473" y="805"/>
      <point x="-473" y="731" type="curve" smooth="yes"/>
      <point x="-473" y="657"/>
      <point x="-428" y="611"/>
    </contour>
  </outline>
</glyph>
<glyph name="maiChattawa-thai" format="2">
  <unicode hex="0E4B"/>
  <anchor x="-68" y="536" name="_top"/>
  <anchor x="-75" y="845" name="top"/>
  <outline>
    <contour>
      <point x="-247" y="616" type="line"/>
      <point x="-95" y="616" type="line"/>
      <point x="-95" y="855" type="line"/>
      <point x="-247" y="855" type="line"/>
    </contour>
    <contour>
      <point x="-312" y="685" type="line"/>
      <point x="-30" y="685" type="line"/>
      <point x="-30" y="787" type="line"/>
      <point x="-312" y="787" type="line"/>
    </contour>
  </outline>
</glyph>
<glyph name="thanthakhat-thai" format="2">
  <unicode hex="0E4C"/>
  <anchor x="-68" y="536" name="_top"/>
  <anchor x="-68" y="771" name="top"/>
  <outline>
    <contour>
      <point x="-270" y="600" type="curve"/>
      <point x="-125" y="624" type="line"/>
      <point x="-130" y="634"/>
      <point x="-133" y="644"/>
      <point x="-133" y="654" type="curve" smooth="yes"/>
      <point x="-133" y="675"/>
      <point x="-119" y="682"/>
      <point x="-94" y="682" type="curve" smooth="yes"/>
      <point x="-8" y="682" type="line"/>
      <point x="-8" y="806" type="line"/>
      <point x="-161" y="806" type="line" smooth="yes"/>
      <point x="-261" y="806"/>
      <point x="-292" y="756"/>
      <point x="-292" y="691" type="curve" smooth="yes"/>
      <point x="-292" y="656"/>
      <point x="-283" y="622"/>
    </contour>
  </outline>
</glyph>
<glyph name="nikhahit-thai" format="2">
  <unicode hex="0E4D"/>
  <anchor x="-68" y="536" name="_top"/>
  <anchor x="-93" y="772" name="top"/>
  <outline>
    <contour>
      <point x="-186" y="596" type="curve" smooth="yes"/>
      <point x="-102" y="596"/>
      <point x="-48" y="634"/>
      <point x="-48" y="701" type="curve" smooth="yes"/>
      <point x="-48" y="768"/>
      <point x="-102" y="806"/>
      <point x="-186" y="806" type="curve" smooth="yes"/>
      <point x="-269" y="806"/>
      <point x="-323" y="768"/>
      <point x="-323" y="701" type="curve" smooth="yes"/>
      <point x="-323" y="634"/>
      <point x="-269" y="596"/>
    </contour>
    <contour>
      <point x="-186" y="662" type="curve" smooth="yes"/>
      <point x="-213" y="662"/>
      <point x="-229" y="677"/>
      <point x="-229" y="701" type="curve" smooth="yes"/>
      <point x="-229" y="725"/>
      <point x="-213" y="740"/>
      <point x="-186" y="740" type="curve" smooth="yes"/>
      <point x="-158" y="740"/>
      <point x="-142" y="725"/>
      <point x="-142" y="701" type="curve" smooth="yes"/>
      <point x="-142" y="677"/>
      <point x="-158" y="662"/>
    </contour>
  </outline>
</glyph>
<glyph name="yamakkan-thai" format="2">
  <unicode hex="0E4E"/>
  <anchor x="-68" y="536" name="_top"/>
  <anchor x="-68" y="771" name="top"/>
  <outline>
    <contour>
      <point x="-285" y="601" type="curve"/>
      <point x="-170" y="620" type="line"/>
      <point x="-173" y="626"/>
      <point x="-175" y="631"/>
      <point x="-175" y="638" type="curve" smooth="yes"/>
      <point x="-175" y="652"/>
      <point x="-167" y="664"/>
      <point x="-147" y="664" type="curve" smooth="yes"/>
      <point x="-139" y="664"/>
      <point x="-127" y="662"/>
      <point x="-118" y="655" type="curve"/>
      <point x="-75" y="685" type="line"/>
      <point x="-81" y="693"/>
      <point x="-82" y="701"/>
      <point x="-82" y="708" type="curve" smooth="yes"/>
      <point x="-82" y="730"/>
      <point x="-63" y="740"/>
      <point x="-42" y="740" type="curve" smooth="yes"/>
      <point x="-31" y="740"/>
      <point x="-16" y="738"/>
      <point x="-7" y="734" type="curve"/>
      <point x="-7" y="811" type="line"/>
      <point x="-27" y="820"/>
      <point x="-56" y="823"/>
      <point x="-75" y="823" type="curve" smooth="yes"/>
      <point x="-126" y="823"/>
      <point x="-172" y="801"/>
      <point x="-172" y="749" type="curve" smooth="yes"/>
      <point x="-172" y="736"/>
      <point x="-169" y="716"/>
      <point x="-158" y="705" type="curve"/>
      <point x="-142" y="716" type="line"/>
      <point x="-158" y="728"/>
      <point x="-174" y="738"/>
      <point x="-207" y="738" type="curve" smooth="yes"/>
      <point x="-260" y="738"/>
      <point x="-302" y="712"/>
      <point x="-302" y="656" type="curve" smooth="yes"/>
      <point x="-302" y="633"/>
      <point x="-295" y="615"/>
    </contour>
  </outline>
</glyph>
<glyph name="fongman-thai" format="2">
  <advance width="675"/>
  <unicode hex="0E4F"/>
  <outline>
    <contour>
      <point x="337" y="-15" type="curve" smooth="yes"/>
      <point x="537" y="-15"/>
      <point x="619" y="80"/>
      <point x="619" y="228" type="curve" smooth="yes"/>
      <point x="619" y="382"/>
      <point x="537" y="470"/>
      <point x="337" y="470" type="curve" smooth="yes"/>
      <point x="138" y="470"/>
      <point x="56" y="382"/>
      <point x="56" y="228" type="curve" smooth="yes"/>
      <point x="56" y="80"/>
      <point x="138" y="-15"/>
    </contour>
    <contour>
      <point x="337" y="80" type="curve" smooth="yes"/>
      <point x="228" y="80"/>
      <point x="179" y="134"/>
      <point x="179" y="228" type="curve" smooth="yes"/>
      <point x="179" y="329"/>
      <point x="228" y="375"/>
      <point x="337" y="375" type="curve" smooth="yes"/>
      <point x="446" y="375"/>
      <point x="496" y="329"/>
      <point x="496" y="228" type="curve" smooth="yes"/>
      <point x="496" y="134"/>
      <point x="446" y="80"/>
    </contour>
    <contour>
      <point x="337" y="127" type="curve" smooth="yes"/>
      <point x="410" y="127"/>
      <point x="440" y="170"/>
      <point x="440" y="228" type="curve" smooth="yes"/>
      <point x="440" y="293"/>
      <point x="410" y="328"/>
      <point x="337" y="328" type="curve" smooth="yes"/>
      <point x="264" y="328"/>
      <point x="235" y="293"/>
      <point x="235" y="228" type="curve" smooth="yes"/>
      <point x="235" y="170"/>
      <point x="264" y="127"/>
    </contour>
  </outline>
</glyph>
<glyph name="one-thai" format="2">
  <advance width="523"/>
  <unicode hex="0E51"/>
  <outline>
    <contour>
      <point x="235" y="-15" type="curve" smooth="yes"/>
      <point x="415" y="-15"/>
      <point x="487" y="87"/>
      <point x="487" y="233" type="curve" smooth="yes"/>
      <point x="487" y="377"/>
      <point x="418" y="465"/>
      <point x="239" y="465" type="curve" smooth="yes"/>
      <point x="90" y="465"/>
      <point x="31" y="404"/>
      <point x="31" y="294" type="curve" smooth="yes"/>
      <point x="31" y="187"/>
      <point x="86" y="137"/>
      <point x="163" y="137" type="curve" smooth="yes"/>
      <point x="203" y="137"/>
      <point x="249" y="151"/>
      <point x="268" y="173" type="curve"/>
      <point x="243" y="279" type="line"/>
      <point x="237" y="276"/>
      <point x="231" y="274"/>
      <point x="223" y="274" type="curve" smooth="yes"/>
      <point x="206" y="274"/>
      <point x="196" y="284"/>
      <point x="196" y="303" type="curve" smooth="yes"/>
      <point x="196" y="327"/>
      <point x="213" y="336"/>
      <point x="241" y="336" type="curve" smooth="yes"/>
      <point x="281" y="336"/>
      <point x="305" y="317"/>
      <point x="305" y="243" type="curve" smooth="yes"/>
      <point x="305" y="145"/>
      <point x="261" y="110"/>
      <point x="179" y="110" type="curve" smooth="yes"/>
      <point x="165" y="110"/>
      <point x="153" y="111"/>
      <point x="143" y="115" type="curve"/>
      <point x="143" y="-1" type="line"/>
      <point x="173" y="-12"/>
      <point x="204" y="-15"/>
    </contour>
  </outline>
</glyph>
<glyph name="five-thai" format="2">
  <advance width="560"/>
  <unicode hex="0E55"/>
  <outline>
    <contour>
      <point x="263" y="0" type="curve" smooth="yes"/>
      <point x="498" y="0" type="line"/>
      <point x="498" y="129" type="line"/>
      <point x="473" y="129" type="line" smooth="yes"/>
      <point x="442" y="129"/>
      <point x="425" y="141"/>
      <point x="425" y="163" type="curve" smooth="yes"/>
      <point x="425" y="181"/>
      <point x="436" y="192"/>
      <point x="455" y="192" type="curve" smooth="yes"/>
      <point x="459" y="192"/>
      <point x="467" y="192"/>
      <point x="472" y="190" type="curve"/>
      <point x="490" y="281" type="line"/>
      <point x="470" y="292"/>
      <point x="442" y="298"/>
      <point x="407" y="298" type="curve" smooth="yes"/>
      <point x="322" y="298"/>
      <point x="282" y="264"/>
      <point x="282" y="200" type="curve" smooth="yes"/>
      <point x="282" y="167"/>
      <point x="292" y="130"/>
      <point x="306" y="118" type="curve"/>
      <point x="316" y="128" type="line"/>
      <point x="289" y="128" type="line" smooth="yes"/>
      <point x="239" y="128"/>
      <point x="218" y="155"/>
      <point x="218" y="217" type="curve" smooth="yes"/>
      <point x="218" y="289"/>
      <point x="246" y="332"/>
      <point x="334" y="332" type="curve" smooth="yes"/>
      <point x="366" y="332" type="line" smooth="yes"/>
      <point x="455" y="332"/>
      <point x="514" y="382"/>
      <point x="514" y="463" type="curve" smooth="yes"/>
      <point x="514" y="584" type="line"/>
      <point x="376" y="584" type="line"/>
      <point x="376" y="543" type="line" smooth="yes"/>
      <point x="376" y="468"/>
      <point x="368" y="450"/>
      <point x="286" y="450" type="curve"/>
      <point x="287" y="432" type="line"/>
      <point x="313" y="439"/>
      <point x="341" y="464"/>
      <point x="341" y="510" type="curve" smooth="yes"/>
      <point x="341" y="564"/>
      <point x="301" y="601"/>
      <point x="226" y="601" type="curve" smooth="yes"/>
      <point x="154" y="601"/>
      <point x="110" y="566"/>
      <point x="110" y="511" type="curve" smooth="yes"/>
      <point x="110" y="457"/>
      <point x="153" y="428"/>
      <point x="207" y="419" type="curve"/>
      <point x="201" y="448" type="line"/>
      <point x="83" y="449"/>
      <point x="36" y="348"/>
      <point x="36" y="224" type="curve" smooth="yes"/>
      <point x="36" y="74"/>
      <point x="104" y="0"/>
    </contour>
    <contour>
      <point x="227" y="468" type="curve" smooth="yes"/>
      <point x="206" y="468"/>
      <point x="196" y="483"/>
      <point x="196" y="501" type="curve" smooth="yes"/>
      <point x="196" y="519"/>
      <point x="206" y="534"/>
      <point x="227" y="534" type="curve" smooth="yes"/>
      <point x="247" y="534"/>
      <point x="259" y="519"/>
      <point x="259" y="501" type="curve" smooth="yes"/>
      <point x="259" y="483"/>
      <point x="247" y="468"/>
    </contour>
  </outline>
</glyph>
<glyph name="six-thai" format="2">
  <advance width="528"/>
  <unicode hex="0E56"/>
  <outline>
    <contour>
      <point x="264" y="-15" type="curve" smooth="yes"/>
      <point x="426" y="-15"/>
      <point x="492" y="81"/>
      <point x="492" y="233" type="curve" smooth="yes"/>
      <point x="492" y="375"/>
      <point x="434" y="465"/>
      <point x="302" y="465" type="curve" smooth="yes"/>
      <point x="236" y="465"/>
      <point x="194" y="442"/>
      <point x="178" y="396" type="curve"/>
      <point x="202" y="396" type="line"/>
      <point x="177" y="584" type="line"/>
      <point x="26" y="584" type="line"/>
      <point x="75" y="281" type="line"/>
      <point x="213" y="281" type="line"/>
      <point x="212" y="313"/>
      <point x="232" y="330"/>
      <point x="257" y="330" type="curve" smooth="yes"/>
      <point x="290" y="330"/>
      <point x="310" y="300"/>
      <point x="310" y="228" type="curve" smooth="yes"/>
      <point x="310" y="158"/>
      <point x="291" y="120"/>
      <point x="253" y="120" type="curve" smooth="yes"/>
      <point x="227" y="120"/>
      <point x="204" y="138"/>
      <point x="182" y="177" type="curve"/>
      <point x="59" y="92" type="line"/>
      <point x="99" y="15"/>
      <point x="173" y="-15"/>
    </contour>
  </outline>
</glyph>
<glyph name="nine-thai" format="2">
  <advance width="576"/>
  <unicode hex="0E59"/>
  <outline>
    <contour>
      <point x="209" y="-10" type="curve" smooth="yes"/>
      <point x="242" y="-10"/>
      <point x="283" y="-4"/>
      <point x="305" y="4" type="curve"/>
      <point x="284" y="124" type="line"/>
      <point x="279" y="121"/>
      <point x="272" y="120"/>
      <point x="266" y="120" type="curve" smooth="yes"/>
      <point x="230" y="120"/>
      <point x="218" y="157"/>
      <point x="218" y="235" type="curve" smooth="yes"/>
      <point x="218" y="320"/>
      <point x="232" y="336"/>
      <point x="249" y="336" type="curve" smooth="yes"/>
      <point x="259" y="336"/>
      <point x="265" y="330"/>
      <point x="270" y="310" type="curve" smooth="yes"/>
      <point x="353" y="0" type="line"/>
      <point x="512" y="0" type="line"/>
      <point x="425" y="285" type="line" smooth="yes"/>
      <point x="410" y="335"/>
      <point x="417" y="355"/>
      <point x="456" y="355" type="curve" smooth="yes"/>
      <point x="470" y="355" type="line" smooth="yes"/>
      <point x="518" y="355"/>
      <point x="550" y="396"/>
      <point x="550" y="466" type="curve" smooth="yes"/>
      <point x="550" y="584" type="line"/>
      <point x="394" y="584" type="line"/>
      <point x="394" y="498" type="line" smooth="yes"/>
      <point x="394" y="478"/>
      <point x="388" y="465"/>
      <point x="364" y="465" type="curve" smooth="yes"/>
      <point x="359" y="465" type="line" smooth="yes"/>
      <point x="321" y="465"/>
      <point x="298" y="424"/>
      <point x="309" y="389" type="curve"/>
      <point x="327" y="388" type="line"/>
      <point x="307" y="444"/>
      <point x="267" y="465"/>
      <point x="200" y="465" type="curve" smooth="yes"/>
      <point x="83" y="465"/>
      <point x="36" y="402"/>
      <point x="36" y="238" type="curve" smooth="yes"/>
      <point x="36" y="77"/>
      <point x="81" y="-10"/>
    </contour>
  </outline>
</glyph>
<glyph name="angkhankhu-thai" format="2">
  <advance width="866"/>
  <unicode hex="0E5A"/>
  <outline>
    <contour>
      <point x="308" y="0" type="line"/>
      <point x="500" y="0" type="line"/>
      <point x="500" y="548" type="line"/>
      <point x="308" y="548" type="line"/>
      <point x="308" y="409" type="line" smooth="yes"/>
      <point x="308" y="367"/>
      <point x="287" y="345"/>
      <point x="245" y="345" type="curve" smooth="yes"/>
      <point x="204" y="345"/>
      <point x="183" y="365"/>
      <point x="183" y="394" type="curve" smooth="yes"/>
      <point x="183" y="422"/>
      <point x="203" y="435"/>
      <point x="227" y="435" type="curve" smooth="yes"/>
      <point x="233" y="435"/>
      <point x="240" y="435"/>
      <point x="250" y="432" type="curve"/>
      <point x="260" y="546" type="line"/>
      <point x="230" y="556"/>
      <point x="202" y="558"/>
      <point x="182" y="558" type="curve" smooth="yes"/>
      <point x="71" y="558"/>
      <point x="6" y="493"/>
      <point x="6" y="386" type="curve" smooth="yes"/>
      <point x="6" y="260"/>
      <point x="98" y="203"/>
      <point x="195" y="203" type="curve" smooth="yes"/>
      <point x="284" y="203"/>
      <point x="346" y="247"/>
      <point x="347" y="317" type="curve"/>
      <point x="308" y="313" type="line"/>
    </contour>
    <contour>
      <point x="618" y="0" type="line"/>
      <point x="810" y="0" type="line"/>
      <point x="810" y="548" type="line"/>
      <point x="618" y="548" type="line"/>
      <point x="618" y="423" type="line" smooth="yes"/>
      <point x="618" y="370"/>
      <point x="585" y="335"/>
      <point x="541" y="335" type="curve" smooth="yes"/>
      <point x="516" y="335"/>
      <point x="490" y="344"/>
      <point x="460" y="369" type="curve"/>
      <point x="415" y="258" type="line"/>
      <point x="449" y="223"/>
      <point x="492" y="206"/>
      <point x="530" y="206" type="curve" smooth="yes"/>
      <point x="594" y="206"/>
      <point x="648" y="250"/>
      <point x="649" y="331" type="curve"/>
      <point x="618" y="327" type="line"/>
    </contour>
  </outline>
</glyph>
<glyph name="khomut-thai" format="2">
  <advance width="931"/>
  <unicode hex="0E5B"/>
  <outline>
    <contour>
      <point x="254" y="70" type="curve" smooth="yes"/>
      <point x="448" y="70"/>
      <point x="474" y="223"/>
      <point x="482" y="297" type="curve"/>
      <point x="455" y="297" type="line"/>
      <point x="495" y="121" type="line"/>
      <point x="592" y="121" type="line"/>
      <point x="623" y="303" type="line"/>
      <point x="599" y="303" type="line"/>
      <point x="644" y="131" type="line"/>
      <point x="718" y="131" type="line"/>
      <point x="743" y="288" type="line"/>
      <point x="714" y="288" type="line"/>
      <point x="734" y="178"/>
      <point x="779" y="129"/>
      <point x="838" y="129" type="curve" smooth="yes"/>
      <point x="859" y="129"/>
      <point x="873" y="134"/>
      <point x="885" y="141" type="curve"/>
      <point x="885" y="260" type="line"/>
      <point x="879" y="257"/>
      <point x="871" y="255"/>
      <point x="859" y="255" type="curve" smooth="yes"/>
      <point x="812" y="255"/>
      <point x="806" y="285"/>
      <point x="796" y="326" type="curve" smooth="yes"/>
      <point x="791" y="346" type="line"/>
      <point x="710" y="346" type="line"/>
      <point x="676" y="230" type="line"/>
      <point x="701" y="231" type="line"/>
      <point x="656" y="366" type="line"/>
      <point x="565" y="366" type="line"/>
      <point x="531" y="211" type="line"/>
      <point x="555" y="211" type="line"/>
      <point x="505" y="377" type="line"/>
      <point x="391" y="377" type="line"/>
      <point x="401" y="261"/>
      <point x="372" y="198"/>
      <point x="283" y="198" type="curve" smooth="yes"/>
      <point x="231" y="198"/>
      <point x="202" y="220"/>
      <point x="202" y="275" type="curve" smooth="yes"/>
      <point x="202" y="296"/>
      <point x="206" y="325"/>
      <point x="227" y="325" type="curve" smooth="yes"/>
      <point x="241" y="325"/>
      <point x="247" y="312"/>
      <point x="247" y="296" type="curve" smooth="yes"/>
      <point x="247" y="287"/>
      <point x="245" y="276"/>
      <point x="242" y="266" type="curve"/>
      <point x="348" y="239" type="line"/>
      <point x="359" y="268"/>
      <point x="365" y="292"/>
      <point x="365" y="320" type="curve" smooth="yes"/>
      <point x="365" y="398"/>
      <point x="319" y="448"/>
      <point x="215" y="448" type="curve" smooth="yes"/>
      <point x="96" y="448"/>
      <point x="46" y="382"/>
      <point x="46" y="273" type="curve" smooth="yes"/>
      <point x="46" y="148"/>
      <point x="111" y="70"/>
    </contour>
  </outline>
</glyph>
<glyph name="doChada-thai.short" format="2">
  <advance width="657"/>
  <anchor x="599" y="-157" name="bottom"/>
  <anchor x="563" y="536" name="top"/>
  <outline>
    <contour>
      <point x="81" y="-200" type="line"/>
      <point x="256" y="-200" type="line"/>
      <point x="256" y="-191" type="line" smooth="yes"/>
      <point x="256" y="-163"/>
      <point x="271" y="-148"/>
      <point x="310" y="-148" type="curve" smooth="yes"/>
      <point x="345" y="-148"/>
      <point x="401" y="-161"/>
      <point x="428" y="-200" type="curve"/>
      <point x="599" y="-200" type="line"/>
      <point x="599" y="337" type="line" smooth="yes"/>
      <point x="599" y="484"/>
      <point x="509" y="563"/>
      <point x="333" y="563" type="curve" smooth="yes"/>
      <point x="151" y="563"/>
      <point x="63" y="478"/>
      <point x="63" y="368" type="curve" smooth="yes"/>
      <point x="63" y="348" type="line"/>
      <point x="169" y="310" type="line"/>
      <point x="168" y="306" type="line"/>
      <point x="115" y="292"/>
      <point x="92" y="255"/>
      <point x="92" y="201" type="curve" smooth="yes"/>
      <point x="92" y="152" type="line" smooth="yes"/>
      <point x="92" y="130"/>
      <point x="82" y="119"/>
      <point x="59" y="119" type="curve" smooth="yes"/>
      <point x="52" y="119"/>
      <point x="45" y="120"/>
      <point x="37" y="123" type="curve"/>
      <point x="20" y="25" type="line"/>
      <point x="44" y="11"/>
      <point x="81" y="0"/>
      <point x="128" y="0" type="curve" smooth="yes"/>
      <point x="216" y="0"/>
      <point x="278" y="38"/>
      <point x="278" y="128" type="curve" smooth="yes"/>
      <point x="278" y="192" type="line" smooth="yes"/>
      <point x="278" y="235"/>
      <point x="287" y="254"/>
      <point x="319" y="255" type="curve"/>
      <point x="331" y="331" type="line"/>
      <point x="261" y="361" type="line"/>
      <point x="264" y="387"/>
      <point x="280" y="411"/>
      <point x="329" y="411" type="curve" smooth="yes"/>
      <point x="386" y="411"/>
      <point x="407" y="379"/>
      <point x="407" y="328" type="curve" smooth="yes"/>
      <point x="407" y="-113" type="line"/>
      <point x="440" y="-102" type="line"/>
      <point x="413" y="-56"/>
      <point x="335" y="-24"/>
      <point x="250" y="-24" type="curve" smooth="yes"/>
      <point x="146" y="-24"/>
      <point x="81" y="-71"/>
      <point x="81" y="-183" type="curve" smooth="yes"/>
    </contour>
  </outline>
</glyph>
<glyph name="loChula-thai.short" format="2">
  <advance width="747"/>
  <anchor x="649" y="0" name="bottom"/>
  <anchor x="670" y="536" name="top"/>
  <outline>
    <contour>
      <point x="80" y="0" type="line"/>
      <point x="293" y="0" type="line"/>
      <point x="331" y="116" type="line" smooth="yes"/>
      <point x="343" y="151"/>
      <point x="355" y="181"/>
      <point x="366" y="236" type="curve"/>
      <point x="370" y="236" type="line"/>
      <point x="381" y="181"/>
      <point x="392" y="152"/>
      <point x="403" y="115" type="curve" smooth="yes"/>
      <point x="437" y="0" type="line"/>
      <point x="649" y="0" type="line"/>
      <point x="697" y="326" type="line" smooth="yes"/>
      <point x="704" y="378"/>
      <point x="690" y="432"/>
      <point x="627" y="452" type="curve"/>
      <point x="627" y="456" type="line"/>
      <point x="707" y="467"/>
      <point x="741" y="516"/>
      <point x="741" y="584" type="curve"/>
      <point x="559" y="584" type="line"/>
      <point x="555" y="544"/>
      <point x="544" y="526"/>
      <point x="490" y="526" type="curve" smooth="yes"/>
      <point x="414" y="526" type="line"/>
      <point x="414" y="413" type="line"/>
      <point x="468" y="413" type="line" smooth="yes"/>
      <point x="514" y="413"/>
      <point x="534" y="392"/>
      <point x="527" y="342" type="curve" smooth="yes"/>
      <point x="516" y="268" type="line" smooth="yes"/>
      <point x="510" y="226"/>
      <point x="506" y="186"/>
      <point x="505" y="140" type="curve"/>
      <point x="501" y="140" type="line"/>
      <point x="488" y="189"/>
      <point x="479" y="235"/>
      <point x="459" y="282" type="curve" smooth="yes"/>
      <point x="419" y="375" type="line"/>
      <point x="310" y="375" type="line"/>
      <point x="275" y="280" type="line" smooth="yes"/>
      <point x="258" y="233"/>
      <point x="243" y="187"/>
      <point x="230" y="140" type="curve"/>
      <point x="226" y="140" type="line"/>
      <point x="230" y="210"/>
      <point x="231" y="279"/>
      <point x="229" y="324" type="curve" smooth="yes"/>
      <point x="218" y="548" type="line"/>
      <point x="20" y="548" type="line"/>
    </contour>
  </outline>
</glyph>
<glyph name="lu-thai.short" format="2">
  <advance width="657"/>
  <anchor x="599" y="-157" name="bottom"/>
  <anchor x="563" y="536" name="top"/>
  <outline>
    <contour>
      <point x="407" y="-174" type="line"/>
      <point x="599" y="-174" type="line"/>
      <point x="599" y="100" type="line"/>
      <point x="407" y="100" type="line"/>
    </contour>
    <component base="phoSamphao-thai"/>
  </outline>
</glyph>
<glyph name="lu_lakkhangyao-thai" format="2">
  <advance width="999"/>
  <outline>
    <contour>
      <point x="407" y="-220" type="line"/>
      <point x="599" y="-220" type="line"/>
      <point x="599" y="321" type="line" smooth="yes"/>
      <point x="599" y="379"/>
      <point x="621" y="411"/>
      <point x="674" y="411" type="curve" smooth="yes"/>
      <point x="727" y="411"/>
      <point x="749" y="379"/>
      <point x="749" y="321" type="curve" smooth="yes"/>
      <point x="749" y="-220" type="line"/>
      <point x="941" y="-220" type="line"/>
      <point x="941" y="348" type="line" smooth="yes"/>
      <point x="941" y="474"/>
      <point x="871" y="563"/>
      <point x="710" y="563" type="curve" smooth="yes"/>
      <point x="616" y="563"/>
      <point x="550" y="531"/>
      <point x="517" y="476" type="curve"/>
      <point x="513" y="476" type="line"/>
      <point x="485" y="532"/>
      <point x="415" y="563"/>
      <point x="325" y="563" type="curve" smooth="yes"/>
      <point x="151" y="563"/>
      <point x="63" y="478"/>
      <point x="63" y="368" type="curve" smooth="yes"/>
      <point x="63" y="348" type="line"/>
      <point x="169" y="310" type="line"/>
      <point x="168" y="306" type="line"/>
      <point x="115" y="292"/>
      <point x="92" y="255"/>
      <point x="92" y="201" type="curve" smooth="yes"/>
      <point x="92" y="142" type="line" smooth="yes"/>
      <point x="92" y="120"/>
      <point x="82" y="109"/>
      <point x="59" y="109" type="curve" smooth="yes"/>
      <point x="52" y="109"/>
      <point x="45" y="110"/>
      <point x="37" y="113" type="curve"/>
      <point x="20" y="15" type="line"/>
      <point x="44" y="1"/>
      <point x="81" y="-10"/>
      <point x="128" y="-10" type="curve" smooth="yes"/>
      <point x="216" y="-10"/>
      <point x="278" y="28"/>
      <point x="278" y="118" type="curve" smooth="yes"/>
      <point x="278" y="192" type="line" smooth="yes"/>
      <point x="278" y="235"/>
      <point x="287" y="254"/>
      <point x="319" y="255" type="curve"/>
      <point x="331" y="331" type="line"/>
      <point x="261" y="361" type="line"/>
      <point x="264" y="387"/>
      <point x="280" y="411"/>
      <point x="329" y="411" type="curve" smooth="yes"/>
      <point x="386" y="411"/>
      <point x="407" y="379"/>
      <point x="407" y="328" type="curve" smooth="yes"/>
    </contour>
  </outline>
</glyph>
<glyph name="maiChattawa-thai.narrow" format="2">
  <anchor x="-293" y="536" name="_top"/>
  <anchor x="-353" y="844" name="top"/>
  <outline>
    <contour>
      <point x="-510" y="616" type="line"/>
      <point x="-358" y="616" type="line"/>
      <point x="-358" y="855" type="line"/>
      <point x="-510" y="855" type="line"/>
    </contour>
    <contour>
      <point x="-575" y="685" type="line"/>
      <point x="-293" y="685" type="line"/>
      <point x="-293" y="787" type="line"/>
      <point x="-575" y="787" type="line"/>
    </contour>
  </outline>
</glyph>
<glyph name="maiChattawa-thai.small" format="2">
  <anchor x="-68" y="772" name="_top"/>
  <anchor x="-68" y="1056" name="top"/>
  <outline>
    <contour>
      <point x="-224" y="855" type="line"/>
      <point x="-82" y="855" type="line"/>
      <point x="-82" y="1056" type="line"/>
      <point x="-224" y="1056" type="line"/>
    </contour>
    <contour>
      <point x="-298" y="906" type="line"/>
      <point x="-8" y="906" type="line"/>
      <point x="-8" y="1005" type="line"/>
      <point x="-298" y="1005" type="line"/>
    </contour>
  </outline>
</glyph>
<glyph name="maiEk-thai.narrow" format="2">
  <anchor x="-293" y="536" name="_top"/>
  <anchor x="-293" y="845" name="top"/>
  <outline>
    <contour>
      <point x="-465" y="616" type="line"/>
      <point x="-293" y="616" type="line"/>
      <point x="-293" y="835" type="line"/>
      <point x="-465" y="835" type="line"/>
    </contour>
  </outline>
</glyph>
<glyph name="maiEk-thai.small" format="2">
  <anchor x="-68" y="772" name="_top"/>
  <anchor x="-68" y="1057" name="top"/>
  <outline>
    <contour>
      <point x="-228" y="855" type="line"/>
      <point x="-68" y="855" type="line"/>
      <point x="-68" y="1056" type="line"/>
      <point x="-228" y="1056" type="line"/>
    </contour>
  </outline>
</glyph>
<glyph name="maiHanaKat-thai.narrow" format="2">
  <anchor x="-293" y="536" name="_top"/>
  <anchor x="-293" y="745" name="top"/>
  <outline>
    <contour>
      <point x="-462" y="616" type="curve" smooth="yes"/>
      <point x="-293" y="616" type="line"/>
      <point x="-293" y="733" type="line"/>
      <point x="-405" y="733" type="line" smooth="yes"/>
      <point x="-433" y="733"/>
      <point x="-443" y="741"/>
      <point x="-443" y="760" type="curve" smooth="yes"/>
      <point x="-443" y="766"/>
      <point x="-442" y="775"/>
      <point x="-439" y="786" type="curve"/>
      <point x="-572" y="802" type="line"/>
      <point x="-587" y="772"/>
      <point x="-595" y="745"/>
      <point x="-595" y="719" type="curve" smooth="yes"/>
      <point x="-595" y="668"/>
      <point x="-565" y="616"/>
    </contour>
  </outline>
</glyph>
<glyph name="maiTho-thai.narrow" format="2">
  <anchor x="-293" y="536" name="_top"/>
  <anchor x="-352" y="845" name="top"/>
  <outline>
    <contour>
      <point x="-561" y="615" type="line"/>
      <point x="-293" y="615" type="line"/>
      <point x="-293" y="730" type="line"/>
      <point x="-404" y="730" type="line"/>
      <point x="-404" y="702" type="line"/>
      <point x="-367" y="718"/>
      <point x="-357" y="746"/>
      <point x="-357" y="769" type="curve" smooth="yes"/>
      <point x="-357" y="830"/>
      <point x="-396" y="855"/>
      <point x="-461" y="855" type="curve" smooth="yes"/>
      <point x="-493" y="855"/>
      <point x="-544" y="849"/>
      <point x="-571" y="826" type="curve"/>
      <point x="-552" y="751" type="line"/>
      <point x="-544" y="755"/>
      <point x="-532" y="758"/>
      <point x="-524" y="758" type="curve" smooth="yes"/>
      <point x="-510" y="758"/>
      <point x="-497" y="749"/>
      <point x="-497" y="728" type="curve" smooth="yes"/>
      <point x="-497" y="690"/>
      <point x="-543" y="676"/>
      <point x="-561" y="669" type="curve"/>
    </contour>
  </outline>
</glyph>
<glyph name="maiTho-thai.small" format="2">
  <anchor x="-68" y="772" name="_top"/>
  <anchor x="-68" y="1057" name="top"/>
  <outline>
    <contour>
      <point x="-271" y="855" type="line"/>
      <point x="22" y="855" type="line"/>
      <point x="22" y="951" type="line"/>
      <point x="-127" y="951" type="line"/>
      <point x="-119" y="928" type="line"/>
      <point x="-89" y="941"/>
      <point x="-83" y="964"/>
      <point x="-83" y="985" type="curve" smooth="yes"/>
      <point x="-83" y="1035"/>
      <point x="-119" y="1056"/>
      <point x="-179" y="1056" type="curve" smooth="yes"/>
      <point x="-209" y="1056"/>
      <point x="-256" y="1051"/>
      <point x="-281" y="1032" type="curve"/>
      <point x="-263" y="964" type="line"/>
      <point x="-256" y="971"/>
      <point x="-245" y="975"/>
      <point x="-236" y="975" type="curve" smooth="yes"/>
      <point x="-224" y="975"/>
      <point x="-212" y="967"/>
      <point x="-212" y="950" type="curve" smooth="yes"/>
      <point x="-212" y="918"/>
      <point x="-255" y="906"/>
      <point x="-271" y="900" type="curve"/>
    </contour>
  </outline>
</glyph>
<glyph name="maiTri-thai.narrow" format="2">
  <anchor x="-293" y="536" name="_top"/>
  <anchor x="-393" y="845" name="top"/>
  <outline>
    <contour>
      <point x="-542" y="611" type="curve" smooth="yes"/>
      <point x="-523" y="611"/>
      <point x="-497" y="615"/>
      <point x="-488" y="623" type="curve"/>
      <point x="-492" y="699" type="line"/>
      <point x="-499" y="697"/>
      <point x="-502" y="697"/>
      <point x="-507" y="697" type="curve" smooth="yes"/>
      <point x="-522" y="697"/>
      <point x="-530" y="711"/>
      <point x="-530" y="727" type="curve" smooth="yes"/>
      <point x="-530" y="745"/>
      <point x="-520" y="757"/>
      <point x="-511" y="758" type="curve"/>
      <point x="-486" y="741" type="line"/>
      <point x="-482" y="741" type="line"/>
      <point x="-456" y="758" type="line"/>
      <point x="-446" y="757"/>
      <point x="-435" y="747"/>
      <point x="-435" y="727" type="curve" smooth="yes"/>
      <point x="-435" y="708"/>
      <point x="-444" y="700"/>
      <point x="-457" y="695" type="curve"/>
      <point x="-457" y="616" type="line"/>
      <point x="-293" y="616" type="line"/>
      <point x="-293" y="718" type="line"/>
      <point x="-344" y="718" type="line"/>
      <point x="-341" y="699" type="line"/>
      <point x="-331" y="712"/>
      <point x="-323" y="732"/>
      <point x="-323" y="763" type="curve" smooth="yes"/>
      <point x="-323" y="816"/>
      <point x="-351" y="852"/>
      <point x="-435" y="855" type="curve"/>
      <point x="-485" y="816" type="line"/>
      <point x="-542" y="855" type="line"/>
      <point x="-603" y="853"/>
      <point x="-647" y="808"/>
      <point x="-647" y="730" type="curve" smooth="yes"/>
      <point x="-647" y="657"/>
      <point x="-608" y="611"/>
    </contour>
  </outline>
</glyph>
<glyph name="maiTri-thai.small" format="2">
  <anchor x="-68" y="772" name="_top"/>
  <anchor x="-68" y="1056" name="top"/>
  <outline>
    <contour>
      <point x="-252" y="850" type="curve" smooth="yes"/>
      <point x="-230" y="850"/>
      <point x="-205" y="855"/>
      <point x="-195" y="862" type="curve"/>
      <point x="-200" y="924" type="line"/>
      <point x="-205" y="922"/>
      <point x="-210" y="921"/>
      <point x="-215" y="921" type="curve" smooth="yes"/>
      <point x="-230" y="921"/>
      <point x="-243" y="930"/>
      <point x="-243" y="948" type="curve" smooth="yes"/>
      <point x="-243" y="965"/>
      <point x="-233" y="977"/>
      <point x="-225" y="977" type="curve"/>
      <point x="-193" y="955" type="line"/>
      <point x="-188" y="955" type="line"/>
      <point x="-156" y="977" type="line"/>
      <point x="-148" y="975"/>
      <point x="-138" y="964"/>
      <point x="-138" y="950" type="curve" smooth="yes"/>
      <point x="-138" y="934"/>
      <point x="-151" y="924"/>
      <point x="-160" y="921" type="curve"/>
      <point x="-160" y="855" type="line"/>
      <point x="42" y="855" type="line"/>
      <point x="42" y="944" type="line"/>
      <point x="-58" y="944" type="line"/>
      <point x="-54" y="927" type="line"/>
      <point x="-42" y="934"/>
      <point x="-30" y="953"/>
      <point x="-30" y="981" type="curve" smooth="yes"/>
      <point x="-30" y="1034"/>
      <point x="-75" y="1056"/>
      <point x="-148" y="1056" type="curve"/>
      <point x="-190" y="1019" type="line"/>
      <point x="-234" y="1056" type="line"/>
      <point x="-321" y="1056"/>
      <point x="-358" y="1009"/>
      <point x="-358" y="950" type="curve" smooth="yes"/>
      <point x="-358" y="898"/>
      <point x="-330" y="850"/>
    </contour>
  </outline>
</glyph>
<glyph name="maitaikhu-thai.narrow" format="2">
  <anchor x="-293" y="536" name="_top"/>
  <anchor x="-341" y="824" name="top"/>
  <outline>
    <contour>
      <point x="-385" y="611" type="curve" smooth="yes"/>
      <point x="-329" y="611"/>
      <point x="-293" y="646"/>
      <point x="-293" y="721" type="curve" smooth="yes"/>
      <point x="-293" y="745" type="line"/>
      <point x="-401" y="745" type="line"/>
      <point x="-401" y="729" type="line" smooth="yes"/>
      <point x="-401" y="710"/>
      <point x="-409" y="698"/>
      <point x="-423" y="698" type="curve" smooth="yes"/>
      <point x="-441" y="698"/>
      <point x="-451" y="716"/>
      <point x="-453" y="739" type="curve"/>
      <point x="-472" y="739" type="line"/>
      <point x="-506" y="700" type="line"/>
      <point x="-518" y="700"/>
      <point x="-526" y="716"/>
      <point x="-526" y="738" type="curve" smooth="yes"/>
      <point x="-526" y="768"/>
      <point x="-512" y="782"/>
      <point x="-494" y="782" type="curve" smooth="yes"/>
      <point x="-294" y="782" type="line"/>
      <point x="-294" y="865" type="line"/>
      <point x="-523" y="865" type="line" smooth="yes"/>
      <point x="-581" y="865"/>
      <point x="-635" y="824"/>
      <point x="-635" y="739" type="curve" smooth="yes"/>
      <point x="-635" y="658"/>
      <point x="-585" y="615"/>
      <point x="-507" y="615" type="curve"/>
      <point x="-464" y="656" type="line"/>
      <point x="-448" y="628"/>
      <point x="-422" y="611"/>
    </contour>
  </outline>
</glyph>
<glyph name="ru-thai.short" format="2">
  <advance width="638"/>
  <anchor x="580" y="-157" name="bottom"/>
  <anchor x="563" y="536" name="top"/>
  <outline>
    <contour>
      <point x="388" y="-174" type="line"/>
      <point x="580" y="-174" type="line"/>
      <point x="580" y="100" type="line"/>
      <point x="388" y="100" type="line"/>
    </contour>
    <component base="thoThung-thai"/>
  </outline>
</glyph>
<glyph name="ru_lakkhangyao-thai" format="2">
  <advance width="980"/>
  <outline>
    <contour>
      <point x="388" y="-220" type="line"/>
      <point x="580" y="-220" type="line"/>
      <point x="580" y="321" type="line" smooth="yes"/>
      <point x="580" y="379"/>
      <point x="602" y="411"/>
      <point x="655" y="411" type="curve" smooth="yes"/>
      <point x="708" y="411"/>
      <point x="730" y="379"/>
      <point x="730" y="321" type="curve" smooth="yes"/>
      <point x="730" y="-220" type="line"/>
      <point x="922" y="-220" type="line"/>
      <point x="922" y="348" type="line" smooth="yes"/>
      <point x="922" y="474"/>
      <point x="852" y="563"/>
      <point x="691" y="563" type="curve" smooth="yes"/>
      <point x="597" y="563"/>
      <point x="531" y="531"/>
      <point x="498" y="476" type="curve"/>
      <point x="494" y="476" type="line"/>
      <point x="460" y="532"/>
      <point x="394" y="563"/>
      <point x="296" y="563" type="curve" smooth="yes"/>
      <point x="137" y="563"/>
      <point x="44" y="478"/>
      <point x="44" y="368" type="curve" smooth="yes"/>
      <point x="44" y="348" type="line"/>
      <point x="150" y="310" type="line"/>
      <point x="149" y="306" type="line"/>
      <point x="83" y="284"/>
      <point x="49" y="245"/>
      <point x="49" y="171" type="curve" smooth="yes"/>
      <point x="49" y="134" type="line" smooth="yes"/>
      <point x="49" y="44"/>
      <point x="105" y="-10"/>
      <point x="212" y="-10" type="curve" smooth="yes"/>
      <point x="258" y="-10"/>
      <point x="297" y="0"/>
      <point x="322" y="13" type="curve"/>
      <point x="307" y="120" type="line"/>
      <point x="297" y="116"/>
      <point x="285" y="114"/>
      <point x="274" y="114" type="curve" smooth="yes"/>
      <point x="246" y="114"/>
      <point x="235" y="126"/>
      <point x="235" y="154" type="curve" smooth="yes"/>
      <point x="235" y="197" type="line" smooth="yes"/>
      <point x="235" y="240"/>
      <point x="252" y="253"/>
      <point x="300" y="255" type="curve"/>
      <point x="312" y="330" type="line"/>
      <point x="242" y="361" type="line"/>
      <point x="245" y="387"/>
      <point x="261" y="411"/>
      <point x="310" y="411" type="curve" smooth="yes"/>
      <point x="367" y="411"/>
      <point x="388" y="379"/>
      <point x="388" y="328" type="curve" smooth="yes"/>
    </contour>
  </outline>
</glyph>
<glyph name="saraI-thai.narrow" format="2">
  <anchor x="-292" y="536" name="_top"/>
  <anchor x="-292" y="713" name="top"/>
  <outline>
    <contour>
      <point x="-686" y="616" type="line"/>
      <point x="-293" y="616" type="line"/>
      <point x="-293" y="745" type="line"/>
      <point x="-596" y="745" type="line"/>
      <point x="-686" y="695" type="line"/>
    </contour>
  </outline>
</glyph>
<glyph name="saraIi-thai.narrow" format="2">
  <anchor x="-293" y="536" name="_top"/>
  <anchor x="-293" y="772" name="top"/>
  <outline>
    <contour>
      <point x="-686" y="616" type="line"/>
      <point x="-293" y="616" type="line"/>
      <point x="-293" y="735" type="line"/>
      <point x="-596" y="735" type="line"/>
      <point x="-686" y="685" type="line"/>
    </contour>
    <contour>
      <point x="-443" y="693" type="line"/>
      <point x="-293" y="693" type="line"/>
      <point x="-293" y="806" type="line"/>
      <point x="-443" y="806" type="line"/>
    </contour>
  </outline>
</glyph>
<glyph name="saraUe-thai.narrow" format="2">
  <anchor x="-293" y="536" name="_top"/>
  <anchor x="-293" y="772" name="top"/>
  <outline>
    <contour>
      <point x="-686" y="616" type="line"/>
      <point x="-383" y="616" type="line" smooth="yes"/>
      <point x="-311" y="616"/>
      <point x="-278" y="659"/>
      <point x="-278" y="717" type="curve" smooth="yes"/>
      <point x="-278" y="775"/>
      <point x="-317" y="818"/>
      <point x="-382" y="818" type="curve" smooth="yes"/>
      <point x="-445" y="818"/>
      <point x="-483" y="779"/>
      <point x="-483" y="730" type="curve" smooth="yes"/>
      <point x="-483" y="719"/>
      <point x="-481" y="708"/>
      <point x="-477" y="696" type="curve"/>
      <point x="-441" y="735" type="line"/>
      <point x="-596" y="735" type="line"/>
      <point x="-686" y="685" type="line"/>
    </contour>
    <contour>
      <point x="-383" y="676" type="curve" smooth="yes"/>
      <point x="-411" y="676"/>
      <point x="-425" y="695"/>
      <point x="-425" y="717" type="curve" smooth="yes"/>
      <point x="-425" y="739"/>
      <point x="-410" y="756"/>
      <point x="-385" y="756" type="curve" smooth="yes"/>
      <point x="-359" y="756"/>
      <point x="-344" y="739"/>
      <point x="-344" y="715" type="curve" smooth="yes"/>
      <point x="-344" y="693"/>
      <point x="-357" y="676"/>
    </contour>
  </outline>
</glyph>
<glyph name="saraUee-thai.narrow" format="2">
  <anchor x="-293" y="536" name="_top"/>
  <anchor x="-320" y="772" name="top"/>
  <outline>
    <contour>
      <point x="-686" y="616" type="line"/>
      <point x="-293" y="616" type="line"/>
      <point x="-293" y="735" type="line"/>
      <point x="-596" y="735" type="line"/>
      <point x="-686" y="685" type="line"/>
    </contour>
    <contour>
      <point x="-514" y="719" type="line"/>
      <point x="-426" y="719" type="line"/>
      <point x="-426" y="806" type="line"/>
      <point x="-514" y="806" type="line"/>
    </contour>
    <contour>
      <point x="-381" y="719" type="line"/>
      <point x="-293" y="719" type="line"/>
      <point x="-293" y="806" type="line"/>
      <point x="-381" y="806" type="line"/>
    </contour>
  </outline>
</glyph>
<glyph name="thanthakhat-thai.narrow" format="2">
  <anchor x="-293" y="536" name="_top"/>
  <anchor x="-293" y="771" name="top"/>
  <outline>
    <contour>
      <point x="-525" y="600" type="curve"/>
      <point x="-380" y="624" type="line"/>
      <point x="-385" y="634"/>
      <point x="-388" y="644"/>
      <point x="-388" y="654" type="curve" smooth="yes"/>
      <point x="-388" y="675"/>
      <point x="-374" y="682"/>
      <point x="-349" y="682" type="curve" smooth="yes"/>
      <point x="-293" y="682" type="line"/>
      <point x="-293" y="806" type="line"/>
      <point x="-406" y="806" type="line" smooth="yes"/>
      <point x="-506" y="806"/>
      <point x="-547" y="756"/>
      <point x="-547" y="691" type="curve" smooth="yes"/>
      <point x="-547" y="656"/>
      <point x="-538" y="622"/>
    </contour>
  </outline>
</glyph>
<glyph name="thanthakhat-thai.small" format="2">
  <anchor x="-68" y="772" name="_top"/>
  <anchor x="-68" y="1056" name="top"/>
  <outline>
    <contour>
      <point x="-235" y="836" type="curve"/>
      <point x="-111" y="866" type="line"/>
      <point x="-117" y="877"/>
      <point x="-120" y="893"/>
      <point x="-120" y="902" type="curve" smooth="yes"/>
      <point x="-120" y="929"/>
      <point x="-104" y="942"/>
      <point x="-67" y="942" type="curve" smooth="yes"/>
      <point x="22" y="942" type="line"/>
      <point x="22" y="1044" type="line"/>
      <point x="-80" y="1044" type="line" smooth="yes"/>
      <point x="-224" y="1044"/>
      <point x="-262" y="989"/>
      <point x="-262" y="931" type="curve" smooth="yes"/>
      <point x="-262" y="900"/>
      <point x="-254" y="865"/>
    </contour>
  </outline>
</glyph>
<glyph name="thoThan-thai.less" format="2">
  <advance width="586"/>
  <anchor x="469" y="0" name="bottom"/>
  <anchor x="544" y="536" name="top"/>
  <outline>
    <contour>
      <point x="96" y="0" type="line"/>
      <point x="253" y="0" type="line" smooth="yes"/>
      <point x="462" y="0"/>
      <point x="549" y="103"/>
      <point x="549" y="268" type="curve" smooth="yes"/>
      <point x="549" y="395"/>
      <point x="501" y="455"/>
      <point x="443" y="468" type="curve"/>
      <point x="424" y="542"/>
      <point x="349" y="563"/>
      <point x="253" y="563" type="curve" smooth="yes"/>
      <point x="154" y="563"/>
      <point x="88" y="541"/>
      <point x="41" y="520" type="curve"/>
      <point x="41" y="365" type="line"/>
      <point x="80" y="387"/>
      <point x="134" y="413"/>
      <point x="211" y="413" type="curve" smooth="yes"/>
      <point x="296" y="413"/>
      <point x="354" y="381"/>
      <point x="354" y="275" type="curve" smooth="yes"/>
      <point x="354" y="194"/>
      <point x="320" y="143"/>
      <point x="269" y="143" type="curve" smooth="yes"/>
      <point x="266" y="143" type="line"/>
      <point x="266" y="327" type="line"/>
      <point x="51" y="327" type="line"/>
      <point x="51" y="220" type="line"/>
      <point x="96" y="220" type="line"/>
    </contour>
    <contour>
      <point x="439" y="416" type="line"/>
      <point x="547" y="452"/>
      <point x="575" y="523"/>
      <point x="575" y="584" type="curve"/>
      <point x="428" y="584" type="line"/>
      <point x="432" y="551"/>
      <point x="410" y="524"/>
      <point x="354" y="502" type="curve"/>
    </contour>
  </outline>
</glyph>
<glyph name="toPatak-thai.short" format="2">
  <advance width="657"/>
  <anchor x="599" y="-157" name="bottom"/>
  <anchor x="563" y="536" name="top"/>
  <outline>
    <contour>
      <point x="48" y="-200" type="line"/>
      <point x="193" y="-200" type="line"/>
      <point x="193" y="-197" type="line" smooth="yes"/>
      <point x="193" y="-178"/>
      <point x="197" y="-153"/>
      <point x="227" y="-153" type="curve" smooth="yes"/>
      <point x="256" y="-153"/>
      <point x="276" y="-177"/>
      <point x="287" y="-200" type="curve"/>
      <point x="330" y="-200" type="line"/>
      <point x="375" y="-151" type="line"/>
      <point x="442" y="-200" type="line"/>
      <point x="599" y="-200" type="line"/>
      <point x="599" y="337" type="line"/>
      <point x="599" y="484"/>
      <point x="509" y="563"/>
      <point x="333" y="563" type="curve" smooth="yes"/>
      <point x="151" y="563"/>
      <point x="63" y="478"/>
      <point x="63" y="368" type="curve" smooth="yes"/>
      <point x="63" y="348" type="line"/>
      <point x="169" y="310" type="line"/>
      <point x="168" y="306" type="line"/>
      <point x="115" y="292"/>
      <point x="92" y="255"/>
      <point x="92" y="201" type="curve" smooth="yes"/>
      <point x="92" y="152" type="line" smooth="yes"/>
      <point x="92" y="130"/>
      <point x="82" y="119"/>
      <point x="59" y="119" type="curve" smooth="yes"/>
      <point x="52" y="119"/>
      <point x="45" y="120"/>
      <point x="37" y="123" type="curve"/>
      <point x="20" y="25" type="line"/>
      <point x="44" y="11"/>
      <point x="81" y="0"/>
      <point x="128" y="0" type="curve" smooth="yes"/>
      <point x="216" y="0"/>
      <point x="278" y="38"/>
      <point x="278" y="128" type="curve" smooth="yes"/>
      <point x="278" y="192" type="line" smooth="yes"/>
      <point x="278" y="235"/>
      <point x="287" y="254"/>
      <point x="319" y="255" type="curve"/>
      <point x="331" y="331" type="line"/>
      <point x="261" y="361" type="line"/>
      <point x="264" y="387"/>
      <point x="280" y="411"/>
      <point x="329" y="411" type="curve" smooth="yes"/>
      <point x="386" y="411"/>
      <point x="407" y="379"/>
      <point x="407" y="328" type="curve" smooth="yes"/>
      <point x="407" y="-97" type="line"/>
      <point x="426" y="-92" type="line"/>
      <point x="357" y="-45" type="line"/>
      <point x="304" y="-96" type="line"/>
      <point x="275" y="-48"/>
      <point x="233" y="-28"/>
      <point x="181" y="-28" type="curve" smooth="yes"/>
      <point x="106" y="-28"/>
      <point x="48" y="-50"/>
      <point x="48" y="-158" type="curve" smooth="yes"/>
    </contour>
  </outline>
</glyph>
<glyph name="yoYing-thai.less" format="2">
  <advance width="926"/>
  <anchor x="861" y="0" name="bottom"/>
  <anchor x="868" y="536" name="top"/>
  <outline>
    <contour>
      <point x="620" y="-15" type="curve" smooth="yes"/>
      <point x="788" y="-15"/>
      <point x="868" y="58"/>
      <point x="868" y="225" type="curve" smooth="yes"/>
      <point x="868" y="548" type="line"/>
      <point x="676" y="548" type="line"/>
      <point x="676" y="206" type="line" smooth="yes"/>
      <point x="676" y="157"/>
      <point x="651" y="137"/>
      <point x="618" y="137" type="curve" smooth="yes"/>
      <point x="585" y="137"/>
      <point x="560" y="157"/>
      <point x="560" y="206" type="curve" smooth="yes"/>
      <point x="560" y="358" type="line" smooth="yes"/>
      <point x="560" y="489"/>
      <point x="465" y="563"/>
      <point x="305" y="563" type="curve" smooth="yes"/>
      <point x="135" y="563"/>
      <point x="44" y="478"/>
      <point x="44" y="368" type="curve" smooth="yes"/>
      <point x="44" y="348" type="line"/>
      <point x="150" y="310" type="line"/>
      <point x="149" y="306" type="line"/>
      <point x="83" y="284"/>
      <point x="49" y="251"/>
      <point x="49" y="177" type="curve" smooth="yes"/>
      <point x="49" y="134" type="line" smooth="yes"/>
      <point x="49" y="44"/>
      <point x="105" y="-10"/>
      <point x="212" y="-10" type="curve" smooth="yes"/>
      <point x="258" y="-10"/>
      <point x="297" y="0"/>
      <point x="322" y="13" type="curve"/>
      <point x="307" y="120" type="line"/>
      <point x="297" y="116"/>
      <point x="285" y="114"/>
      <point x="274" y="114" type="curve" smooth="yes"/>
      <point x="246" y="114"/>
      <point x="235" y="126"/>
      <point x="235" y="154" type="curve" smooth="yes"/>
      <point x="235" y="197" type="line" smooth="yes"/>
      <point x="235" y="240"/>
      <point x="252" y="253"/>
      <point x="300" y="255" type="curve"/>
      <point x="312" y="332" type="line"/>
      <point x="242" y="365" type="line"/>
      <point x="246" y="398"/>
      <point x="266" y="415"/>
      <point x="305" y="415" type="curve" smooth="yes"/>
      <point x="350" y="415"/>
      <point x="372" y="393"/>
      <point x="372" y="341" type="curve" smooth="yes"/>
      <point x="372" y="225" type="line" smooth="yes"/>
      <point x="372" y="58"/>
      <point x="452" y="-15"/>
    </contour>
  </outline>
</glyph>
